M48
; DRILL file {KiCad 9.0.2} date 2025-07-17T14:14:14-0500
; FORMAT={-:-/ absolute / metric / decimal}
; #@! TF.CreationDate,2025-07-17T14:14:14-05:00
; #@! TF.GenerationSoftware,Kicad,Pcbnew,9.0.2
; #@! TF.FileFunction,Plated,1,2,PTH
FMAT,2
METRIC
; #@! TA.AperFunction,Plated,PTH,ComponentDrill
T1C0.762
; #@! TA.AperFunction,Plated,PTH,ComponentDrill
T2C0.800
; #@! TA.AperFunction,Plated,PTH,ComponentDrill
T3C0.900
; #@! TA.AperFunction,Plated,PTH,ComponentDrill
T4C1.000
; #@! TA.AperFunction,Plated,PTH,ComponentDrill
T5C1.016
; #@! TA.AperFunction,Plated,PTH,ComponentDrill
T6C1.020
; #@! TA.AperFunction,Plated,PTH,ComponentDrill
T7C1.300
; #@! TA.AperFunction,Plated,PTH,ComponentDrill
T8C1.570
%
G90
G05
T1
X41.65Y-97.43
X44.19Y-97.43
X46.73Y-97.43
X49.27Y-97.43
X51.81Y-97.43
X54.35Y-97.43
T2
X121.34Y-37.5
X121.34Y-43.0
X121.34Y-48.5
X121.34Y-54.0
X131.5Y-37.5
X131.5Y-43.0
X131.5Y-48.5
X131.5Y-54.0
T3
X115.46Y-37.5
X115.46Y-43.0
X115.63Y-48.5
X115.63Y-54.0
X118.0Y-37.5
X118.0Y-43.0
X118.17Y-48.5
X118.17Y-54.0
T5
X121.5Y-60.5
X123.296Y-62.296
X125.092Y-60.5
T6
X79.8Y-45.455
X79.8Y-47.995
X79.8Y-50.535
X79.8Y-53.075
X79.8Y-55.615
X79.8Y-58.155
X79.8Y-60.695
X79.8Y-63.235
X79.8Y-65.775
X79.8Y-68.315
X79.8Y-70.855
X79.8Y-73.395
X79.8Y-75.935
X79.8Y-78.475
X79.8Y-81.015
X105.2Y-45.455
X105.2Y-47.995
X105.2Y-50.535
X105.2Y-53.075
X105.2Y-55.615
X105.2Y-58.155
X105.2Y-60.695
X105.2Y-63.235
X105.2Y-65.775
X105.2Y-68.315
X105.2Y-70.855
X105.2Y-73.395
X105.2Y-75.935
X105.2Y-78.475
X105.2Y-81.015
T7
X130.5Y-70.0
X130.5Y-75.0
X130.5Y-80.0
T8
X54.05Y-114.0
X126.95Y-114.0
T4
G00X48.5Y-62.5
M15
G01X48.5Y-64.5
M16
G05
G00X50.5Y-68.2
M15
G01X52.5Y-68.2
M16
G05
G00X54.5Y-62.5
M15
G01X54.5Y-64.5
M16
G05
M30
