%TF.GenerationSoftware,KiCad,Pcbnew,9.0.2*%
%TF.CreationDate,2025-07-17T14:14:17-05:00*%
%TF.ProjectId,PCB Leds,50434220-4c65-4647-932e-6b696361645f,rev?*%
%TF.SameCoordinates,Original*%
%TF.FileFunction,Legend,Top*%
%TF.FilePolarity,Positive*%
%FSLAX46Y46*%
G04 Gerber Fmt 4.6, Leading zero omitted, Abs format (unit mm)*
G04 Created by KiCad (PCBNEW 9.0.2) date 2025-07-17 14:14:17*
%MOMM*%
%LPD*%
G01*
G04 APERTURE LIST*
%ADD10C,0.150000*%
%ADD11C,0.120000*%
%ADD12C,0.127000*%
%ADD13C,0.200000*%
G04 APERTURE END LIST*
D10*
X126253333Y-41084819D02*
X125920000Y-40608628D01*
X125681905Y-41084819D02*
X125681905Y-40084819D01*
X125681905Y-40084819D02*
X126062857Y-40084819D01*
X126062857Y-40084819D02*
X126158095Y-40132438D01*
X126158095Y-40132438D02*
X126205714Y-40180057D01*
X126205714Y-40180057D02*
X126253333Y-40275295D01*
X126253333Y-40275295D02*
X126253333Y-40418152D01*
X126253333Y-40418152D02*
X126205714Y-40513390D01*
X126205714Y-40513390D02*
X126158095Y-40561009D01*
X126158095Y-40561009D02*
X126062857Y-40608628D01*
X126062857Y-40608628D02*
X125681905Y-40608628D01*
X126634286Y-40180057D02*
X126681905Y-40132438D01*
X126681905Y-40132438D02*
X126777143Y-40084819D01*
X126777143Y-40084819D02*
X127015238Y-40084819D01*
X127015238Y-40084819D02*
X127110476Y-40132438D01*
X127110476Y-40132438D02*
X127158095Y-40180057D01*
X127158095Y-40180057D02*
X127205714Y-40275295D01*
X127205714Y-40275295D02*
X127205714Y-40370533D01*
X127205714Y-40370533D02*
X127158095Y-40513390D01*
X127158095Y-40513390D02*
X126586667Y-41084819D01*
X126586667Y-41084819D02*
X127205714Y-41084819D01*
X126253333Y-46584819D02*
X125920000Y-46108628D01*
X125681905Y-46584819D02*
X125681905Y-45584819D01*
X125681905Y-45584819D02*
X126062857Y-45584819D01*
X126062857Y-45584819D02*
X126158095Y-45632438D01*
X126158095Y-45632438D02*
X126205714Y-45680057D01*
X126205714Y-45680057D02*
X126253333Y-45775295D01*
X126253333Y-45775295D02*
X126253333Y-45918152D01*
X126253333Y-45918152D02*
X126205714Y-46013390D01*
X126205714Y-46013390D02*
X126158095Y-46061009D01*
X126158095Y-46061009D02*
X126062857Y-46108628D01*
X126062857Y-46108628D02*
X125681905Y-46108628D01*
X126586667Y-45584819D02*
X127205714Y-45584819D01*
X127205714Y-45584819D02*
X126872381Y-45965771D01*
X126872381Y-45965771D02*
X127015238Y-45965771D01*
X127015238Y-45965771D02*
X127110476Y-46013390D01*
X127110476Y-46013390D02*
X127158095Y-46061009D01*
X127158095Y-46061009D02*
X127205714Y-46156247D01*
X127205714Y-46156247D02*
X127205714Y-46394342D01*
X127205714Y-46394342D02*
X127158095Y-46489580D01*
X127158095Y-46489580D02*
X127110476Y-46537200D01*
X127110476Y-46537200D02*
X127015238Y-46584819D01*
X127015238Y-46584819D02*
X126729524Y-46584819D01*
X126729524Y-46584819D02*
X126634286Y-46537200D01*
X126634286Y-46537200D02*
X126586667Y-46489580D01*
X45716666Y-68704819D02*
X45716666Y-69419104D01*
X45716666Y-69419104D02*
X45669047Y-69561961D01*
X45669047Y-69561961D02*
X45573809Y-69657200D01*
X45573809Y-69657200D02*
X45430952Y-69704819D01*
X45430952Y-69704819D02*
X45335714Y-69704819D01*
X46716666Y-69704819D02*
X46145238Y-69704819D01*
X46430952Y-69704819D02*
X46430952Y-68704819D01*
X46430952Y-68704819D02*
X46335714Y-68847676D01*
X46335714Y-68847676D02*
X46240476Y-68942914D01*
X46240476Y-68942914D02*
X46145238Y-68990533D01*
X116161905Y-51494819D02*
X116161905Y-50494819D01*
X116161905Y-50494819D02*
X116400000Y-50494819D01*
X116400000Y-50494819D02*
X116542857Y-50542438D01*
X116542857Y-50542438D02*
X116638095Y-50637676D01*
X116638095Y-50637676D02*
X116685714Y-50732914D01*
X116685714Y-50732914D02*
X116733333Y-50923390D01*
X116733333Y-50923390D02*
X116733333Y-51066247D01*
X116733333Y-51066247D02*
X116685714Y-51256723D01*
X116685714Y-51256723D02*
X116638095Y-51351961D01*
X116638095Y-51351961D02*
X116542857Y-51447200D01*
X116542857Y-51447200D02*
X116400000Y-51494819D01*
X116400000Y-51494819D02*
X116161905Y-51494819D01*
X117590476Y-50828152D02*
X117590476Y-51494819D01*
X117352381Y-50447200D02*
X117114286Y-51161485D01*
X117114286Y-51161485D02*
X117733333Y-51161485D01*
X41666666Y-30304819D02*
X41333333Y-29828628D01*
X41095238Y-30304819D02*
X41095238Y-29304819D01*
X41095238Y-29304819D02*
X41476190Y-29304819D01*
X41476190Y-29304819D02*
X41571428Y-29352438D01*
X41571428Y-29352438D02*
X41619047Y-29400057D01*
X41619047Y-29400057D02*
X41666666Y-29495295D01*
X41666666Y-29495295D02*
X41666666Y-29638152D01*
X41666666Y-29638152D02*
X41619047Y-29733390D01*
X41619047Y-29733390D02*
X41571428Y-29781009D01*
X41571428Y-29781009D02*
X41476190Y-29828628D01*
X41476190Y-29828628D02*
X41095238Y-29828628D01*
X42095238Y-29781009D02*
X42428571Y-29781009D01*
X42571428Y-30304819D02*
X42095238Y-30304819D01*
X42095238Y-30304819D02*
X42095238Y-29304819D01*
X42095238Y-29304819D02*
X42571428Y-29304819D01*
X43333333Y-29781009D02*
X43000000Y-29781009D01*
X43000000Y-30304819D02*
X43000000Y-29304819D01*
X43000000Y-29304819D02*
X43476190Y-29304819D01*
X44000000Y-29304819D02*
X44000000Y-29542914D01*
X43761905Y-29447676D02*
X44000000Y-29542914D01*
X44000000Y-29542914D02*
X44238095Y-29447676D01*
X43857143Y-29733390D02*
X44000000Y-29542914D01*
X44000000Y-29542914D02*
X44142857Y-29733390D01*
X44761905Y-29304819D02*
X44761905Y-29542914D01*
X44523810Y-29447676D02*
X44761905Y-29542914D01*
X44761905Y-29542914D02*
X45000000Y-29447676D01*
X44619048Y-29733390D02*
X44761905Y-29542914D01*
X44761905Y-29542914D02*
X44904762Y-29733390D01*
X115991905Y-40494819D02*
X115991905Y-39494819D01*
X115991905Y-39494819D02*
X116230000Y-39494819D01*
X116230000Y-39494819D02*
X116372857Y-39542438D01*
X116372857Y-39542438D02*
X116468095Y-39637676D01*
X116468095Y-39637676D02*
X116515714Y-39732914D01*
X116515714Y-39732914D02*
X116563333Y-39923390D01*
X116563333Y-39923390D02*
X116563333Y-40066247D01*
X116563333Y-40066247D02*
X116515714Y-40256723D01*
X116515714Y-40256723D02*
X116468095Y-40351961D01*
X116468095Y-40351961D02*
X116372857Y-40447200D01*
X116372857Y-40447200D02*
X116230000Y-40494819D01*
X116230000Y-40494819D02*
X115991905Y-40494819D01*
X116944286Y-39590057D02*
X116991905Y-39542438D01*
X116991905Y-39542438D02*
X117087143Y-39494819D01*
X117087143Y-39494819D02*
X117325238Y-39494819D01*
X117325238Y-39494819D02*
X117420476Y-39542438D01*
X117420476Y-39542438D02*
X117468095Y-39590057D01*
X117468095Y-39590057D02*
X117515714Y-39685295D01*
X117515714Y-39685295D02*
X117515714Y-39780533D01*
X117515714Y-39780533D02*
X117468095Y-39923390D01*
X117468095Y-39923390D02*
X116896667Y-40494819D01*
X116896667Y-40494819D02*
X117515714Y-40494819D01*
X126253333Y-52084819D02*
X125920000Y-51608628D01*
X125681905Y-52084819D02*
X125681905Y-51084819D01*
X125681905Y-51084819D02*
X126062857Y-51084819D01*
X126062857Y-51084819D02*
X126158095Y-51132438D01*
X126158095Y-51132438D02*
X126205714Y-51180057D01*
X126205714Y-51180057D02*
X126253333Y-51275295D01*
X126253333Y-51275295D02*
X126253333Y-51418152D01*
X126253333Y-51418152D02*
X126205714Y-51513390D01*
X126205714Y-51513390D02*
X126158095Y-51561009D01*
X126158095Y-51561009D02*
X126062857Y-51608628D01*
X126062857Y-51608628D02*
X125681905Y-51608628D01*
X127110476Y-51418152D02*
X127110476Y-52084819D01*
X126872381Y-51037200D02*
X126634286Y-51751485D01*
X126634286Y-51751485D02*
X127253333Y-51751485D01*
X52564285Y-101941009D02*
X52707142Y-101988628D01*
X52707142Y-101988628D02*
X52754761Y-102036247D01*
X52754761Y-102036247D02*
X52802380Y-102131485D01*
X52802380Y-102131485D02*
X52802380Y-102274342D01*
X52802380Y-102274342D02*
X52754761Y-102369580D01*
X52754761Y-102369580D02*
X52707142Y-102417200D01*
X52707142Y-102417200D02*
X52611904Y-102464819D01*
X52611904Y-102464819D02*
X52230952Y-102464819D01*
X52230952Y-102464819D02*
X52230952Y-101464819D01*
X52230952Y-101464819D02*
X52564285Y-101464819D01*
X52564285Y-101464819D02*
X52659523Y-101512438D01*
X52659523Y-101512438D02*
X52707142Y-101560057D01*
X52707142Y-101560057D02*
X52754761Y-101655295D01*
X52754761Y-101655295D02*
X52754761Y-101750533D01*
X52754761Y-101750533D02*
X52707142Y-101845771D01*
X52707142Y-101845771D02*
X52659523Y-101893390D01*
X52659523Y-101893390D02*
X52564285Y-101941009D01*
X52564285Y-101941009D02*
X52230952Y-101941009D01*
X53088095Y-101464819D02*
X53659523Y-101464819D01*
X53373809Y-102464819D02*
X53373809Y-101464819D01*
X54516666Y-102464819D02*
X53945238Y-102464819D01*
X54230952Y-102464819D02*
X54230952Y-101464819D01*
X54230952Y-101464819D02*
X54135714Y-101607676D01*
X54135714Y-101607676D02*
X54040476Y-101702914D01*
X54040476Y-101702914D02*
X53945238Y-101750533D01*
X115991905Y-34994819D02*
X115991905Y-33994819D01*
X115991905Y-33994819D02*
X116230000Y-33994819D01*
X116230000Y-33994819D02*
X116372857Y-34042438D01*
X116372857Y-34042438D02*
X116468095Y-34137676D01*
X116468095Y-34137676D02*
X116515714Y-34232914D01*
X116515714Y-34232914D02*
X116563333Y-34423390D01*
X116563333Y-34423390D02*
X116563333Y-34566247D01*
X116563333Y-34566247D02*
X116515714Y-34756723D01*
X116515714Y-34756723D02*
X116468095Y-34851961D01*
X116468095Y-34851961D02*
X116372857Y-34947200D01*
X116372857Y-34947200D02*
X116230000Y-34994819D01*
X116230000Y-34994819D02*
X115991905Y-34994819D01*
X117515714Y-34994819D02*
X116944286Y-34994819D01*
X117230000Y-34994819D02*
X117230000Y-33994819D01*
X117230000Y-33994819D02*
X117134762Y-34137676D01*
X117134762Y-34137676D02*
X117039524Y-34232914D01*
X117039524Y-34232914D02*
X116944286Y-34280533D01*
X116161905Y-45994819D02*
X116161905Y-44994819D01*
X116161905Y-44994819D02*
X116400000Y-44994819D01*
X116400000Y-44994819D02*
X116542857Y-45042438D01*
X116542857Y-45042438D02*
X116638095Y-45137676D01*
X116638095Y-45137676D02*
X116685714Y-45232914D01*
X116685714Y-45232914D02*
X116733333Y-45423390D01*
X116733333Y-45423390D02*
X116733333Y-45566247D01*
X116733333Y-45566247D02*
X116685714Y-45756723D01*
X116685714Y-45756723D02*
X116638095Y-45851961D01*
X116638095Y-45851961D02*
X116542857Y-45947200D01*
X116542857Y-45947200D02*
X116400000Y-45994819D01*
X116400000Y-45994819D02*
X116161905Y-45994819D01*
X117066667Y-44994819D02*
X117685714Y-44994819D01*
X117685714Y-44994819D02*
X117352381Y-45375771D01*
X117352381Y-45375771D02*
X117495238Y-45375771D01*
X117495238Y-45375771D02*
X117590476Y-45423390D01*
X117590476Y-45423390D02*
X117638095Y-45471009D01*
X117638095Y-45471009D02*
X117685714Y-45566247D01*
X117685714Y-45566247D02*
X117685714Y-45804342D01*
X117685714Y-45804342D02*
X117638095Y-45899580D01*
X117638095Y-45899580D02*
X117590476Y-45947200D01*
X117590476Y-45947200D02*
X117495238Y-45994819D01*
X117495238Y-45994819D02*
X117209524Y-45994819D01*
X117209524Y-45994819D02*
X117114286Y-45947200D01*
X117114286Y-45947200D02*
X117066667Y-45899580D01*
X103093095Y-92314819D02*
X103093095Y-93124342D01*
X103093095Y-93124342D02*
X103140714Y-93219580D01*
X103140714Y-93219580D02*
X103188333Y-93267200D01*
X103188333Y-93267200D02*
X103283571Y-93314819D01*
X103283571Y-93314819D02*
X103474047Y-93314819D01*
X103474047Y-93314819D02*
X103569285Y-93267200D01*
X103569285Y-93267200D02*
X103616904Y-93219580D01*
X103616904Y-93219580D02*
X103664523Y-93124342D01*
X103664523Y-93124342D02*
X103664523Y-92314819D01*
X104664523Y-93314819D02*
X104093095Y-93314819D01*
X104378809Y-93314819D02*
X104378809Y-92314819D01*
X104378809Y-92314819D02*
X104283571Y-92457676D01*
X104283571Y-92457676D02*
X104188333Y-92552914D01*
X104188333Y-92552914D02*
X104093095Y-92600533D01*
X124834819Y-75583333D02*
X125549104Y-75583333D01*
X125549104Y-75583333D02*
X125691961Y-75630952D01*
X125691961Y-75630952D02*
X125787200Y-75726190D01*
X125787200Y-75726190D02*
X125834819Y-75869047D01*
X125834819Y-75869047D02*
X125834819Y-75964285D01*
X124930057Y-75154761D02*
X124882438Y-75107142D01*
X124882438Y-75107142D02*
X124834819Y-75011904D01*
X124834819Y-75011904D02*
X124834819Y-74773809D01*
X124834819Y-74773809D02*
X124882438Y-74678571D01*
X124882438Y-74678571D02*
X124930057Y-74630952D01*
X124930057Y-74630952D02*
X125025295Y-74583333D01*
X125025295Y-74583333D02*
X125120533Y-74583333D01*
X125120533Y-74583333D02*
X125263390Y-74630952D01*
X125263390Y-74630952D02*
X125834819Y-75202380D01*
X125834819Y-75202380D02*
X125834819Y-74583333D01*
X47238095Y-86224819D02*
X47238095Y-87034342D01*
X47238095Y-87034342D02*
X47285714Y-87129580D01*
X47285714Y-87129580D02*
X47333333Y-87177200D01*
X47333333Y-87177200D02*
X47428571Y-87224819D01*
X47428571Y-87224819D02*
X47619047Y-87224819D01*
X47619047Y-87224819D02*
X47714285Y-87177200D01*
X47714285Y-87177200D02*
X47761904Y-87129580D01*
X47761904Y-87129580D02*
X47809523Y-87034342D01*
X47809523Y-87034342D02*
X47809523Y-86224819D01*
X48238095Y-86320057D02*
X48285714Y-86272438D01*
X48285714Y-86272438D02*
X48380952Y-86224819D01*
X48380952Y-86224819D02*
X48619047Y-86224819D01*
X48619047Y-86224819D02*
X48714285Y-86272438D01*
X48714285Y-86272438D02*
X48761904Y-86320057D01*
X48761904Y-86320057D02*
X48809523Y-86415295D01*
X48809523Y-86415295D02*
X48809523Y-86510533D01*
X48809523Y-86510533D02*
X48761904Y-86653390D01*
X48761904Y-86653390D02*
X48190476Y-87224819D01*
X48190476Y-87224819D02*
X48809523Y-87224819D01*
X126253333Y-35584819D02*
X125920000Y-35108628D01*
X125681905Y-35584819D02*
X125681905Y-34584819D01*
X125681905Y-34584819D02*
X126062857Y-34584819D01*
X126062857Y-34584819D02*
X126158095Y-34632438D01*
X126158095Y-34632438D02*
X126205714Y-34680057D01*
X126205714Y-34680057D02*
X126253333Y-34775295D01*
X126253333Y-34775295D02*
X126253333Y-34918152D01*
X126253333Y-34918152D02*
X126205714Y-35013390D01*
X126205714Y-35013390D02*
X126158095Y-35061009D01*
X126158095Y-35061009D02*
X126062857Y-35108628D01*
X126062857Y-35108628D02*
X125681905Y-35108628D01*
X127205714Y-35584819D02*
X126634286Y-35584819D01*
X126920000Y-35584819D02*
X126920000Y-34584819D01*
X126920000Y-34584819D02*
X126824762Y-34727676D01*
X126824762Y-34727676D02*
X126729524Y-34822914D01*
X126729524Y-34822914D02*
X126634286Y-34870533D01*
X123219859Y-59051535D02*
X123143669Y-59013440D01*
X123143669Y-59013440D02*
X123067478Y-58937250D01*
X123067478Y-58937250D02*
X122953192Y-58822964D01*
X122953192Y-58822964D02*
X122877002Y-58784869D01*
X122877002Y-58784869D02*
X122800811Y-58784869D01*
X122838907Y-58975345D02*
X122762716Y-58937250D01*
X122762716Y-58937250D02*
X122686526Y-58861059D01*
X122686526Y-58861059D02*
X122648430Y-58708678D01*
X122648430Y-58708678D02*
X122648430Y-58442011D01*
X122648430Y-58442011D02*
X122686526Y-58289630D01*
X122686526Y-58289630D02*
X122762716Y-58213440D01*
X122762716Y-58213440D02*
X122838907Y-58175345D01*
X122838907Y-58175345D02*
X122991288Y-58175345D01*
X122991288Y-58175345D02*
X123067478Y-58213440D01*
X123067478Y-58213440D02*
X123143669Y-58289630D01*
X123143669Y-58289630D02*
X123181764Y-58442011D01*
X123181764Y-58442011D02*
X123181764Y-58708678D01*
X123181764Y-58708678D02*
X123143669Y-58861059D01*
X123143669Y-58861059D02*
X123067478Y-58937250D01*
X123067478Y-58937250D02*
X122991288Y-58975345D01*
X122991288Y-58975345D02*
X122838907Y-58975345D01*
X123943668Y-58975345D02*
X123486525Y-58975345D01*
X123715097Y-58975345D02*
X123715097Y-58175345D01*
X123715097Y-58175345D02*
X123638906Y-58289630D01*
X123638906Y-58289630D02*
X123562716Y-58365821D01*
X123562716Y-58365821D02*
X123486525Y-58403916D01*
D11*
%TO.C,R2*%
X122380000Y-43000000D02*
X123150000Y-43000000D01*
X130460000Y-43000000D02*
X129690000Y-43000000D01*
X123150000Y-41630000D02*
X129690000Y-41630000D01*
X129690000Y-44370000D01*
X123150000Y-44370000D01*
X123150000Y-41630000D01*
%TO.C,R3*%
X122380000Y-48500000D02*
X123150000Y-48500000D01*
X130460000Y-48500000D02*
X129690000Y-48500000D01*
X123150000Y-47130000D02*
X129690000Y-47130000D01*
X129690000Y-49870000D01*
X123150000Y-49870000D01*
X123150000Y-47130000D01*
%TO.C,J1*%
X40700000Y-58900000D02*
X55400000Y-58900000D01*
X40700000Y-68100000D02*
X40700000Y-58900000D01*
X49500000Y-68100000D02*
X40700000Y-68100000D01*
X54550000Y-58700000D02*
X55600000Y-58700000D01*
X55400000Y-58900000D02*
X55400000Y-61500000D01*
X55400000Y-65400000D02*
X55400000Y-68100000D01*
X55400000Y-68100000D02*
X53500000Y-68100000D01*
X55600000Y-59750000D02*
X55600000Y-58700000D01*
%TO.C,D4*%
X115340000Y-52764000D02*
X115340000Y-52920000D01*
X115340000Y-55080000D02*
X115340000Y-55236000D01*
X115340000Y-52764484D02*
G75*
G02*
X118571437Y-52920000I1560000J-1235516D01*
G01*
X115859039Y-52920000D02*
G75*
G02*
X117940961Y-52920000I1040961J-1080000D01*
G01*
X117940961Y-55080000D02*
G75*
G02*
X115859039Y-55080000I-1040961J1080000D01*
G01*
X118571437Y-55080000D02*
G75*
G02*
X115340000Y-55235516I-1671437J1080000D01*
G01*
%TO.C,D2*%
X115170000Y-41764000D02*
X115170000Y-41920000D01*
X115170000Y-44080000D02*
X115170000Y-44236000D01*
X115170000Y-41764484D02*
G75*
G02*
X118401437Y-41920000I1560000J-1235516D01*
G01*
X115689039Y-41920000D02*
G75*
G02*
X117770961Y-41920000I1040961J-1080000D01*
G01*
X117770961Y-44080000D02*
G75*
G02*
X115689039Y-44080000I-1040961J1080000D01*
G01*
X118401437Y-44080000D02*
G75*
G02*
X115170000Y-44235516I-1671437J1080000D01*
G01*
%TO.C,R4*%
X122380000Y-54000000D02*
X123150000Y-54000000D01*
X130460000Y-54000000D02*
X129690000Y-54000000D01*
X123150000Y-52630000D02*
X129690000Y-52630000D01*
X129690000Y-55370000D01*
X123150000Y-55370000D01*
X123150000Y-52630000D01*
%TO.C,BT1*%
X51090000Y-102990000D02*
X51090000Y-125010000D01*
X51090000Y-102990000D02*
X129910000Y-102990000D01*
X51090000Y-125010000D02*
X129910000Y-125010000D01*
X129910000Y-102990000D02*
X129910000Y-125010000D01*
%TO.C,D1*%
X115170000Y-36264000D02*
X115170000Y-36420000D01*
X115170000Y-38580000D02*
X115170000Y-38736000D01*
X115170000Y-36264484D02*
G75*
G02*
X118401437Y-36420000I1560000J-1235516D01*
G01*
X115689039Y-36420000D02*
G75*
G02*
X117770961Y-36420000I1040961J-1080000D01*
G01*
X117770961Y-38580000D02*
G75*
G02*
X115689039Y-38580000I-1040961J1080000D01*
G01*
X118401437Y-38580000D02*
G75*
G02*
X115170000Y-38735516I-1671437J1080000D01*
G01*
%TO.C,D3*%
X115340000Y-47264000D02*
X115340000Y-47420000D01*
X115340000Y-49580000D02*
X115340000Y-49736000D01*
X115340000Y-47264484D02*
G75*
G02*
X118571437Y-47420000I1560000J-1235516D01*
G01*
X115859039Y-47420000D02*
G75*
G02*
X117940961Y-47420000I1040961J-1080000D01*
G01*
X117940961Y-49580000D02*
G75*
G02*
X115859039Y-49580000I-1040961J1080000D01*
G01*
X118571437Y-49580000D02*
G75*
G02*
X115340000Y-49735516I-1671437J1080000D01*
G01*
D12*
%TO.C,U1*%
X78270000Y-40025000D02*
X106780000Y-40025000D01*
X78270000Y-90975000D02*
X78270000Y-40025000D01*
X78270000Y-90975000D02*
X78270000Y-40025000D01*
X83720000Y-40025000D02*
X78270000Y-40025000D01*
X89000000Y-90975000D02*
X78270000Y-90975000D01*
X95711000Y-90975000D02*
X89000000Y-90975000D01*
X101410000Y-40025000D02*
X83720000Y-40025000D01*
X106780000Y-40025000D02*
X101410000Y-40025000D01*
X106780000Y-40025000D02*
X106780000Y-90975000D01*
X106780000Y-40025000D02*
X106780000Y-90975000D01*
X106780000Y-90975000D02*
X78270000Y-90975000D01*
X106780000Y-90975000D02*
X95711000Y-90975000D01*
D13*
X107450000Y-81015000D02*
G75*
G02*
X107250000Y-81015000I-100000J0D01*
G01*
X107250000Y-81015000D02*
G75*
G02*
X107450000Y-81015000I100000J0D01*
G01*
D11*
%TO.C,J2*%
X126380000Y-67380000D02*
X134420000Y-67380000D01*
X126380000Y-83120000D02*
X126380000Y-67380000D01*
X126380000Y-83120000D02*
X134420000Y-83120000D01*
X130000000Y-68188000D02*
X130000000Y-67380000D01*
X130000000Y-73188000D02*
X130000000Y-71812000D01*
X130000000Y-78120000D02*
X130000000Y-76812000D01*
X130000000Y-83120000D02*
X130000000Y-81880000D01*
X131000000Y-68188000D02*
X131000000Y-67380000D01*
X131000000Y-73188000D02*
X131000000Y-71812000D01*
X131000000Y-78120000D02*
X131000000Y-76812000D01*
X131000000Y-83120000D02*
X131000000Y-81880000D01*
X132300000Y-69457000D02*
X132300000Y-67380000D01*
X132300000Y-74457000D02*
X132300000Y-70543000D01*
X132300000Y-78120000D02*
X132300000Y-75543000D01*
X132300000Y-83120000D02*
X132300000Y-81880000D01*
X134420000Y-79700000D02*
X134420000Y-67380000D01*
X134420000Y-83120000D02*
X134420000Y-80300000D01*
X135030000Y-80440000D02*
X134420000Y-80000000D01*
X135030000Y-79560000D01*
X135030000Y-80440000D01*
G36*
X135030000Y-80440000D02*
G01*
X134420000Y-80000000D01*
X135030000Y-79560000D01*
X135030000Y-80440000D01*
G37*
%TO.C,U2*%
X40380000Y-73300000D02*
X55620000Y-73300000D01*
X55620000Y-98700000D01*
X40380000Y-98700000D01*
X40380000Y-73300000D01*
%TO.C,R1*%
X122380000Y-37500000D02*
X123150000Y-37500000D01*
X130460000Y-37500000D02*
X129690000Y-37500000D01*
X123150000Y-36130000D02*
X129690000Y-36130000D01*
X129690000Y-38870000D01*
X123150000Y-38870000D01*
X123150000Y-36130000D01*
D12*
%TO.C,Q1*%
X120152960Y-58075330D02*
X120871380Y-57356910D01*
X120152960Y-58075330D02*
X120902850Y-58825220D01*
X120871380Y-57356910D02*
X121621270Y-58106800D01*
X126217050Y-60500000D02*
G75*
G02*
X120375050Y-60500000I-2921000J0D01*
G01*
X120375050Y-60500000D02*
G75*
G02*
X126217050Y-60500000I2921000J0D01*
G01*
%TD*%
M02*
