%TF.GenerationSoftware,KiCad,Pcbnew,9.0.2*%
%TF.CreationDate,2025-07-17T14:14:17-05:00*%
%TF.ProjectId,PCB Leds,50434220-4c65-4647-932e-6b696361645f,rev?*%
%TF.SameCoordinates,Original*%
%TF.FileFunction,Copper,L2,Bot*%
%TF.FilePolarity,Positive*%
%FSLAX46Y46*%
G04 Gerber Fmt 4.6, Leading zero omitted, Abs format (unit mm)*
G04 Created by KiCad (PCBNEW 9.0.2) date 2025-07-17 14:14:17*
%MOMM*%
%LPD*%
G01*
G04 APERTURE LIST*
G04 Aperture macros list*
%AMRoundRect*
0 Rectangle with rounded corners*
0 $1 Rounding radius*
0 $2 $3 $4 $5 $6 $7 $8 $9 X,Y pos of 4 corners*
0 Add a 4 corners polygon primitive as box body*
4,1,4,$2,$3,$4,$5,$6,$7,$8,$9,$2,$3,0*
0 Add four circle primitives for the rounded corners*
1,1,$1+$1,$2,$3*
1,1,$1+$1,$4,$5*
1,1,$1+$1,$6,$7*
1,1,$1+$1,$8,$9*
0 Add four rect primitives between the rounded corners*
20,1,$1+$1,$2,$3,$4,$5,0*
20,1,$1+$1,$4,$5,$6,$7,0*
20,1,$1+$1,$6,$7,$8,$9,0*
20,1,$1+$1,$8,$9,$2,$3,0*%
G04 Aperture macros list end*
%TA.AperFunction,ComponentPad*%
%ADD10C,1.600000*%
%TD*%
%TA.AperFunction,ComponentPad*%
%ADD11R,3.500000X3.500000*%
%TD*%
%TA.AperFunction,ComponentPad*%
%ADD12RoundRect,0.750000X-0.750000X-1.000000X0.750000X-1.000000X0.750000X1.000000X-0.750000X1.000000X0*%
%TD*%
%TA.AperFunction,ComponentPad*%
%ADD13RoundRect,0.875000X-0.875000X-0.875000X0.875000X-0.875000X0.875000X0.875000X-0.875000X0.875000X0*%
%TD*%
%TA.AperFunction,ComponentPad*%
%ADD14R,1.800000X1.800000*%
%TD*%
%TA.AperFunction,ComponentPad*%
%ADD15C,1.800000*%
%TD*%
%TA.AperFunction,ComponentPad*%
%ADD16R,3.000000X3.000000*%
%TD*%
%TA.AperFunction,ComponentPad*%
%ADD17C,3.000000*%
%TD*%
%TA.AperFunction,ComponentPad*%
%ADD18R,2.000000X2.000000*%
%TD*%
%TA.AperFunction,ComponentPad*%
%ADD19C,2.000000*%
%TD*%
%TA.AperFunction,ComponentPad*%
%ADD20RoundRect,0.250001X1.149999X-1.149999X1.149999X1.149999X-1.149999X1.149999X-1.149999X-1.149999X0*%
%TD*%
%TA.AperFunction,ComponentPad*%
%ADD21C,2.800000*%
%TD*%
%TA.AperFunction,ComponentPad*%
%ADD22C,1.524000*%
%TD*%
%TA.AperFunction,ComponentPad*%
%ADD23C,1.778000*%
%TD*%
%TA.AperFunction,Conductor*%
%ADD24C,1.000000*%
%TD*%
%TA.AperFunction,Conductor*%
%ADD25C,0.500000*%
%TD*%
%TA.AperFunction,Conductor*%
%ADD26C,0.600000*%
%TD*%
G04 APERTURE END LIST*
D10*
%TO.P,R2,1*%
%TO.N,Net-(D2-A)*%
X121340000Y-43000000D03*
%TO.P,R2,2*%
%TO.N,Net-(Q1-Pad3)*%
X131500000Y-43000000D03*
%TD*%
%TO.P,R3,1*%
%TO.N,Net-(D3-A)*%
X121340000Y-48500000D03*
%TO.P,R3,2*%
%TO.N,Net-(Q1-Pad3)*%
X131500000Y-48500000D03*
%TD*%
D11*
%TO.P,J1,1*%
%TO.N,VDC*%
X54500000Y-63500000D03*
D12*
%TO.P,J1,2*%
%TO.N,GND*%
X48500000Y-63500000D03*
D13*
%TO.P,J1,3*%
X51500000Y-68200000D03*
%TD*%
D14*
%TO.P,D4,1,K*%
%TO.N,+5V*%
X115630000Y-54000000D03*
D15*
%TO.P,D4,2,A*%
%TO.N,Net-(D4-A)*%
X118170000Y-54000000D03*
%TD*%
D14*
%TO.P,D2,1,K*%
%TO.N,+5V*%
X115460000Y-43000000D03*
D15*
%TO.P,D2,2,A*%
%TO.N,Net-(D2-A)*%
X118000000Y-43000000D03*
%TD*%
D10*
%TO.P,R4,1*%
%TO.N,Net-(D4-A)*%
X121340000Y-54000000D03*
%TO.P,R4,2*%
%TO.N,Net-(Q1-Pad3)*%
X131500000Y-54000000D03*
%TD*%
D16*
%TO.P,BT1,1,+*%
%TO.N,+BATT*%
X54050000Y-114000000D03*
D17*
%TO.P,BT1,2,-*%
%TO.N,GND*%
X126950000Y-114000000D03*
%TD*%
D14*
%TO.P,D1,1,K*%
%TO.N,+5V*%
X115460000Y-37500000D03*
D15*
%TO.P,D1,2,A*%
%TO.N,Net-(D1-A)*%
X118000000Y-37500000D03*
%TD*%
D14*
%TO.P,D3,1,K*%
%TO.N,+5V*%
X115630000Y-48500000D03*
D15*
%TO.P,D3,2,A*%
%TO.N,Net-(D3-A)*%
X118170000Y-48500000D03*
%TD*%
D18*
%TO.P,U1,1,3V3*%
%TO.N,unconnected-(U1-3V3-Pad1)*%
X105200000Y-81015000D03*
D19*
%TO.P,U1,2,GND*%
%TO.N,GND*%
X105200000Y-78475000D03*
%TO.P,U1,3,D15*%
%TO.N,unconnected-(U1-D15-Pad3)*%
X105200000Y-75935000D03*
%TO.P,U1,4,D2*%
%TO.N,unconnected-(U1-D2-Pad4)*%
X105200000Y-73395000D03*
%TO.P,U1,5,D4*%
%TO.N,unconnected-(U1-D4-Pad5)*%
X105200000Y-70855000D03*
%TO.P,U1,6,RX2*%
%TO.N,unconnected-(U1-RX2-Pad6)*%
X105200000Y-68315000D03*
%TO.P,U1,7,TX2*%
%TO.N,unconnected-(U1-TX2-Pad7)*%
X105200000Y-65775000D03*
%TO.P,U1,8,D5*%
%TO.N,unconnected-(U1-D5-Pad8)*%
X105200000Y-63235000D03*
%TO.P,U1,9,D18*%
%TO.N,/a1*%
X105200000Y-60695000D03*
%TO.P,U1,10,D19*%
%TO.N,/l1*%
X105200000Y-58155000D03*
%TO.P,U1,11,D21*%
%TO.N,unconnected-(U1-D21-Pad11)*%
X105200000Y-55615000D03*
%TO.P,U1,12,RX0*%
%TO.N,unconnected-(U1-RX0-Pad12)*%
X105200000Y-53075000D03*
%TO.P,U1,13,TX0*%
%TO.N,unconnected-(U1-TX0-Pad13)*%
X105200000Y-50535000D03*
%TO.P,U1,14,D22*%
%TO.N,unconnected-(U1-D22-Pad14)*%
X105200000Y-47995000D03*
%TO.P,U1,15,D23*%
%TO.N,unconnected-(U1-D23-Pad15)*%
X105200000Y-45455000D03*
%TO.P,U1,16,EN*%
%TO.N,unconnected-(U1-EN-Pad16)*%
X79800000Y-45455000D03*
%TO.P,U1,17,VP*%
%TO.N,unconnected-(U1-VP-Pad17)*%
X79800000Y-47995000D03*
%TO.P,U1,18,VN*%
%TO.N,unconnected-(U1-VN-Pad18)*%
X79800000Y-50535000D03*
%TO.P,U1,19,D34*%
%TO.N,unconnected-(U1-D34-Pad19)*%
X79800000Y-53075000D03*
%TO.P,U1,20,D35*%
%TO.N,unconnected-(U1-D35-Pad20)*%
X79800000Y-55615000D03*
%TO.P,U1,21,D32*%
%TO.N,unconnected-(U1-D32-Pad21)*%
X79800000Y-58155000D03*
%TO.P,U1,22,D33*%
%TO.N,unconnected-(U1-D33-Pad22)*%
X79800000Y-60695000D03*
%TO.P,U1,23,D25*%
%TO.N,unconnected-(U1-D25-Pad23)*%
X79800000Y-63235000D03*
%TO.P,U1,24,D26*%
%TO.N,unconnected-(U1-D26-Pad24)*%
X79800000Y-65775000D03*
%TO.P,U1,25,D27*%
%TO.N,unconnected-(U1-D27-Pad25)*%
X79800000Y-68315000D03*
%TO.P,U1,26,D14*%
%TO.N,unconnected-(U1-D14-Pad26)*%
X79800000Y-70855000D03*
%TO.P,U1,27,D12*%
%TO.N,unconnected-(U1-D12-Pad27)*%
X79800000Y-73395000D03*
%TO.P,U1,28,D13*%
%TO.N,unconnected-(U1-D13-Pad28)*%
X79800000Y-75935000D03*
%TO.P,U1,29,GND*%
%TO.N,GND*%
X79800000Y-78475000D03*
%TO.P,U1,30,VIN*%
%TO.N,+5V*%
X79800000Y-81015000D03*
%TD*%
D20*
%TO.P,J2,1,Pin_1*%
%TO.N,+5V*%
X130500000Y-80000000D03*
D21*
%TO.P,J2,2,Pin_2*%
%TO.N,/a1*%
X130500000Y-75000000D03*
%TO.P,J2,3,Pin_3*%
%TO.N,GND*%
X130500000Y-70000000D03*
%TD*%
D22*
%TO.P,U2,1,VIN*%
%TO.N,VDC*%
X41650000Y-97430000D03*
%TO.P,U2,2,GND*%
%TO.N,GND*%
X44190000Y-97430000D03*
%TO.P,U2,3,GND*%
X46730000Y-97430000D03*
%TO.P,U2,4,BAT*%
%TO.N,+BATT*%
X49270000Y-97430000D03*
%TO.P,U2,5,GND*%
%TO.N,GND*%
X51810000Y-97430000D03*
%TO.P,U2,6,OUT-5V*%
%TO.N,+5V*%
X54350000Y-97430000D03*
%TD*%
D10*
%TO.P,R1,1*%
%TO.N,Net-(D1-A)*%
X121340000Y-37500000D03*
%TO.P,R1,2*%
%TO.N,Net-(Q1-Pad3)*%
X131500000Y-37500000D03*
%TD*%
D23*
%TO.P,Q1,1*%
%TO.N,GND*%
X121500000Y-60500000D03*
%TO.P,Q1,2*%
%TO.N,/l1*%
X123296050Y-62296050D03*
%TO.P,Q1,3*%
%TO.N,Net-(Q1-Pad3)*%
X125092100Y-60500000D03*
%TD*%
D24*
%TO.N,GND*%
X51500000Y-66500000D02*
X48500000Y-63500000D01*
X51500000Y-68200000D02*
X51500000Y-66500000D01*
%TO.N,+BATT*%
X49270000Y-97430000D02*
X49270000Y-113770000D01*
X49270000Y-113770000D02*
X49500000Y-114000000D01*
X49500000Y-114000000D02*
X54050000Y-114000000D01*
%TO.N,VDC*%
X41650000Y-97430000D02*
X41650000Y-89350000D01*
X59000000Y-65000000D02*
X57500000Y-63500000D01*
X41650000Y-89350000D02*
X59000000Y-72000000D01*
X57500000Y-63500000D02*
X54500000Y-63500000D01*
X59000000Y-72000000D02*
X59000000Y-65000000D01*
%TO.N,+5V*%
X119500000Y-89500000D02*
X119500000Y-80000000D01*
X115460000Y-37500000D02*
X115460000Y-34540000D01*
X115630000Y-48500000D02*
X115630000Y-54000000D01*
X116000000Y-34000000D02*
X135000000Y-34000000D01*
X135000000Y-89500000D02*
X136000000Y-88500000D01*
X76015000Y-95515000D02*
X78000000Y-97500000D01*
X119500000Y-89500000D02*
X135000000Y-89500000D01*
X59570000Y-97430000D02*
X76000000Y-81000000D01*
X115460000Y-34540000D02*
X116000000Y-34000000D01*
X76000000Y-81000000D02*
X76015000Y-81015000D01*
X115460000Y-43000000D02*
X115460000Y-48330000D01*
X136000000Y-35000000D02*
X135000000Y-34000000D01*
X78000000Y-97500000D02*
X111500000Y-97500000D01*
X115460000Y-37500000D02*
X115460000Y-43000000D01*
X76015000Y-81015000D02*
X79800000Y-81015000D01*
X115460000Y-48330000D02*
X115630000Y-48500000D01*
X54350000Y-97430000D02*
X59570000Y-97430000D01*
X119500000Y-80000000D02*
X130500000Y-80000000D01*
X76015000Y-81015000D02*
X76015000Y-95515000D01*
X111500000Y-97500000D02*
X119500000Y-89500000D01*
X136000000Y-88500000D02*
X136000000Y-35000000D01*
D25*
%TO.N,/a1*%
X112195000Y-60695000D02*
X126500000Y-75000000D01*
D26*
X126500000Y-75000000D02*
X130500000Y-75000000D01*
D25*
X105200000Y-60695000D02*
X112195000Y-60695000D01*
%TO.N,Net-(D1-A)*%
X121340000Y-37500000D02*
X118000000Y-37500000D01*
%TO.N,Net-(D2-A)*%
X118000000Y-43000000D02*
X121340000Y-43000000D01*
%TO.N,Net-(D3-A)*%
X118170000Y-48500000D02*
X121340000Y-48500000D01*
%TO.N,Net-(D4-A)*%
X118170000Y-54000000D02*
X121340000Y-54000000D01*
%TO.N,Net-(Q1-Pad3)*%
X131500000Y-48500000D02*
X131500000Y-43000000D01*
X131500000Y-54000000D02*
X131500000Y-48500000D01*
X125092100Y-60500000D02*
X130500000Y-60500000D01*
X131500000Y-43000000D02*
X131500000Y-37500000D01*
X131500000Y-59500000D02*
X131500000Y-54000000D01*
X130500000Y-60500000D02*
X131500000Y-59500000D01*
%TO.N,/l1*%
X114655000Y-58155000D02*
X105200000Y-58155000D01*
X118796050Y-62296050D02*
X114655000Y-58155000D01*
X123296050Y-62296050D02*
X118796050Y-62296050D01*
%TD*%
%TA.AperFunction,Conductor*%
%TO.N,GND*%
G36*
X82443039Y-30520185D02*
G01*
X82488794Y-30572989D01*
X82500000Y-30624500D01*
X82500000Y-48000000D01*
X102500000Y-48000000D01*
X102500000Y-41910258D01*
X103029500Y-41910258D01*
X103029500Y-42139741D01*
X103054446Y-42329215D01*
X103059452Y-42367238D01*
X103064378Y-42385621D01*
X103118842Y-42588887D01*
X103206650Y-42800876D01*
X103206657Y-42800890D01*
X103321392Y-42999617D01*
X103461081Y-43181661D01*
X103461089Y-43181670D01*
X103623330Y-43343911D01*
X103623338Y-43343918D01*
X103805382Y-43483607D01*
X103805385Y-43483608D01*
X103805388Y-43483611D01*
X104004112Y-43598344D01*
X104004117Y-43598346D01*
X104004123Y-43598349D01*
X104082429Y-43630784D01*
X104216113Y-43686158D01*
X104231993Y-43690413D01*
X104291651Y-43726774D01*
X104322182Y-43789620D01*
X104313890Y-43858996D01*
X104269406Y-43912875D01*
X104261901Y-43917573D01*
X104197548Y-43954728D01*
X104010302Y-44098406D01*
X104010295Y-44098412D01*
X103843412Y-44265295D01*
X103843406Y-44265302D01*
X103699730Y-44452545D01*
X103581719Y-44656943D01*
X103581714Y-44656954D01*
X103491394Y-44875006D01*
X103430306Y-45102989D01*
X103399501Y-45336979D01*
X103399500Y-45336995D01*
X103399500Y-45573004D01*
X103399501Y-45573020D01*
X103430306Y-45807010D01*
X103491394Y-46034993D01*
X103581714Y-46253045D01*
X103581719Y-46253056D01*
X103652677Y-46375957D01*
X103699727Y-46457450D01*
X103699729Y-46457453D01*
X103699730Y-46457454D01*
X103845879Y-46647920D01*
X103844720Y-46648808D01*
X103871537Y-46706662D01*
X103861983Y-46775876D01*
X103845385Y-46801701D01*
X103845879Y-46802080D01*
X103699730Y-46992545D01*
X103581719Y-47196943D01*
X103581714Y-47196954D01*
X103491394Y-47415006D01*
X103430306Y-47642989D01*
X103399501Y-47876979D01*
X103399500Y-47876995D01*
X103399500Y-48113004D01*
X103399501Y-48113020D01*
X103430306Y-48347010D01*
X103491394Y-48574993D01*
X103581714Y-48793045D01*
X103581719Y-48793056D01*
X103628906Y-48874785D01*
X103699727Y-48997450D01*
X103699729Y-48997453D01*
X103699730Y-48997454D01*
X103845879Y-49187920D01*
X103844720Y-49188808D01*
X103871537Y-49246662D01*
X103861983Y-49315876D01*
X103845385Y-49341701D01*
X103845879Y-49342080D01*
X103699730Y-49532545D01*
X103581719Y-49736943D01*
X103581714Y-49736954D01*
X103491394Y-49955006D01*
X103430306Y-50182989D01*
X103399501Y-50416979D01*
X103399500Y-50416995D01*
X103399500Y-50653004D01*
X103399501Y-50653020D01*
X103430306Y-50887010D01*
X103491394Y-51114993D01*
X103581714Y-51333045D01*
X103581719Y-51333056D01*
X103652677Y-51455957D01*
X103699727Y-51537450D01*
X103699729Y-51537453D01*
X103699730Y-51537454D01*
X103845879Y-51727920D01*
X103844720Y-51728808D01*
X103871537Y-51786662D01*
X103861983Y-51855876D01*
X103845385Y-51881701D01*
X103845879Y-51882080D01*
X103699730Y-52072545D01*
X103581719Y-52276943D01*
X103581714Y-52276954D01*
X103491394Y-52495006D01*
X103430306Y-52722989D01*
X103399501Y-52956979D01*
X103399500Y-52956995D01*
X103399500Y-53193004D01*
X103399501Y-53193020D01*
X103430306Y-53427010D01*
X103491394Y-53654993D01*
X103581714Y-53873045D01*
X103581719Y-53873056D01*
X103652677Y-53995957D01*
X103699727Y-54077450D01*
X103699729Y-54077453D01*
X103699730Y-54077454D01*
X103845879Y-54267920D01*
X103844720Y-54268808D01*
X103871537Y-54326662D01*
X103861983Y-54395876D01*
X103845385Y-54421701D01*
X103845879Y-54422080D01*
X103699730Y-54612545D01*
X103581719Y-54816943D01*
X103581714Y-54816954D01*
X103491394Y-55035006D01*
X103430306Y-55262989D01*
X103399501Y-55496979D01*
X103399500Y-55496995D01*
X103399500Y-55733004D01*
X103399501Y-55733020D01*
X103430306Y-55967010D01*
X103491394Y-56194993D01*
X103581714Y-56413045D01*
X103581719Y-56413056D01*
X103652677Y-56535957D01*
X103699727Y-56617450D01*
X103699729Y-56617453D01*
X103699730Y-56617454D01*
X103845879Y-56807920D01*
X103844720Y-56808808D01*
X103871537Y-56866662D01*
X103861983Y-56935876D01*
X103845385Y-56961701D01*
X103845879Y-56962080D01*
X103699730Y-57152545D01*
X103581719Y-57356943D01*
X103581714Y-57356954D01*
X103491394Y-57575006D01*
X103430306Y-57802989D01*
X103399501Y-58036979D01*
X103399500Y-58036995D01*
X103399500Y-58273004D01*
X103399501Y-58273020D01*
X103430306Y-58507010D01*
X103491394Y-58734993D01*
X103581714Y-58953045D01*
X103581719Y-58953056D01*
X103646275Y-59064868D01*
X103699727Y-59157450D01*
X103699729Y-59157453D01*
X103699730Y-59157454D01*
X103845879Y-59347920D01*
X103844720Y-59348808D01*
X103871537Y-59406662D01*
X103861983Y-59475876D01*
X103845385Y-59501701D01*
X103845879Y-59502080D01*
X103699730Y-59692545D01*
X103581719Y-59896943D01*
X103581714Y-59896954D01*
X103491394Y-60115006D01*
X103430306Y-60342989D01*
X103399501Y-60576979D01*
X103399500Y-60576995D01*
X103399500Y-60813004D01*
X103399501Y-60813020D01*
X103430306Y-61047010D01*
X103491394Y-61274993D01*
X103581714Y-61493045D01*
X103581719Y-61493056D01*
X103642894Y-61599013D01*
X103699727Y-61697450D01*
X103699729Y-61697453D01*
X103699730Y-61697454D01*
X103845879Y-61887920D01*
X103844720Y-61888808D01*
X103871537Y-61946662D01*
X103861983Y-62015876D01*
X103845385Y-62041701D01*
X103845879Y-62042080D01*
X103699730Y-62232545D01*
X103581719Y-62436943D01*
X103581714Y-62436954D01*
X103491394Y-62655006D01*
X103430306Y-62882989D01*
X103399501Y-63116979D01*
X103399500Y-63116995D01*
X103399500Y-63353004D01*
X103399501Y-63353020D01*
X103427936Y-63569010D01*
X103430307Y-63587014D01*
X103491279Y-63814564D01*
X103491394Y-63814993D01*
X103581714Y-64033045D01*
X103581719Y-64033056D01*
X103650842Y-64152778D01*
X103699727Y-64237450D01*
X103699729Y-64237453D01*
X103699730Y-64237454D01*
X103845879Y-64427920D01*
X103844720Y-64428808D01*
X103871537Y-64486662D01*
X103861983Y-64555876D01*
X103845385Y-64581701D01*
X103845879Y-64582080D01*
X103699730Y-64772545D01*
X103581719Y-64976943D01*
X103581714Y-64976954D01*
X103491394Y-65195006D01*
X103430306Y-65422989D01*
X103399501Y-65656979D01*
X103399500Y-65656995D01*
X103399500Y-65893004D01*
X103399501Y-65893020D01*
X103430306Y-66127010D01*
X103491394Y-66354993D01*
X103581714Y-66573045D01*
X103581719Y-66573056D01*
X103652677Y-66695957D01*
X103699727Y-66777450D01*
X103699729Y-66777453D01*
X103699730Y-66777454D01*
X103845879Y-66967920D01*
X103844720Y-66968808D01*
X103871537Y-67026662D01*
X103861983Y-67095876D01*
X103845385Y-67121701D01*
X103845879Y-67122080D01*
X103699730Y-67312545D01*
X103581719Y-67516943D01*
X103581714Y-67516954D01*
X103491394Y-67735006D01*
X103430306Y-67962989D01*
X103399501Y-68196979D01*
X103399500Y-68196995D01*
X103399500Y-68433004D01*
X103399501Y-68433020D01*
X103430306Y-68667010D01*
X103491394Y-68894993D01*
X103581714Y-69113045D01*
X103581719Y-69113056D01*
X103652677Y-69235957D01*
X103699727Y-69317450D01*
X103699729Y-69317453D01*
X103699730Y-69317454D01*
X103845879Y-69507920D01*
X103844720Y-69508808D01*
X103871537Y-69566662D01*
X103861983Y-69635876D01*
X103845385Y-69661701D01*
X103845879Y-69662080D01*
X103699730Y-69852545D01*
X103581719Y-70056943D01*
X103581714Y-70056954D01*
X103491394Y-70275006D01*
X103430306Y-70502989D01*
X103399501Y-70736979D01*
X103399500Y-70736995D01*
X103399500Y-70973004D01*
X103399501Y-70973020D01*
X103430306Y-71207010D01*
X103491394Y-71434993D01*
X103581714Y-71653045D01*
X103581719Y-71653056D01*
X103652677Y-71775957D01*
X103699727Y-71857450D01*
X103699729Y-71857453D01*
X103699730Y-71857454D01*
X103845879Y-72047920D01*
X103844720Y-72048808D01*
X103871537Y-72106662D01*
X103861983Y-72175876D01*
X103845385Y-72201701D01*
X103845879Y-72202080D01*
X103699730Y-72392545D01*
X103581719Y-72596943D01*
X103581714Y-72596954D01*
X103491394Y-72815006D01*
X103430306Y-73042989D01*
X103399501Y-73276979D01*
X103399500Y-73276995D01*
X103399500Y-73513004D01*
X103399501Y-73513020D01*
X103430306Y-73747010D01*
X103491394Y-73974993D01*
X103581714Y-74193045D01*
X103581719Y-74193056D01*
X103652677Y-74315957D01*
X103699727Y-74397450D01*
X103699729Y-74397453D01*
X103699730Y-74397454D01*
X103845879Y-74587920D01*
X103844720Y-74588808D01*
X103871537Y-74646662D01*
X103861983Y-74715876D01*
X103845385Y-74741701D01*
X103845879Y-74742080D01*
X103699730Y-74932545D01*
X103581719Y-75136943D01*
X103581714Y-75136954D01*
X103491394Y-75355006D01*
X103430306Y-75582989D01*
X103399501Y-75816979D01*
X103399500Y-75816995D01*
X103399500Y-76053004D01*
X103399501Y-76053020D01*
X103430306Y-76287010D01*
X103491394Y-76514993D01*
X103581714Y-76733045D01*
X103581719Y-76733056D01*
X103639755Y-76833575D01*
X103699727Y-76937450D01*
X103699729Y-76937453D01*
X103699730Y-76937454D01*
X103843406Y-77124697D01*
X103843412Y-77124704D01*
X104010295Y-77291587D01*
X104010301Y-77291592D01*
X104197550Y-77435273D01*
X104328918Y-77511118D01*
X104401943Y-77553280D01*
X104401948Y-77553282D01*
X104401951Y-77553284D01*
X104620007Y-77643606D01*
X104847986Y-77704693D01*
X105081989Y-77735500D01*
X105081996Y-77735500D01*
X105318004Y-77735500D01*
X105318011Y-77735500D01*
X105552014Y-77704693D01*
X105779993Y-77643606D01*
X105998049Y-77553284D01*
X106202450Y-77435273D01*
X106389699Y-77291592D01*
X106556592Y-77124699D01*
X106700273Y-76937450D01*
X106818284Y-76733049D01*
X106908606Y-76514993D01*
X106969693Y-76287014D01*
X107000500Y-76053011D01*
X107000500Y-75816989D01*
X106969693Y-75582986D01*
X106908606Y-75355007D01*
X106818284Y-75136951D01*
X106818282Y-75136948D01*
X106818280Y-75136943D01*
X106776118Y-75063918D01*
X106700273Y-74932550D01*
X106641351Y-74855761D01*
X106554121Y-74742080D01*
X106555286Y-74741185D01*
X106528469Y-74683381D01*
X106537998Y-74614165D01*
X106554619Y-74588302D01*
X106554121Y-74587920D01*
X106608814Y-74516641D01*
X106700273Y-74397450D01*
X106818284Y-74193049D01*
X106908606Y-73974993D01*
X106969693Y-73747014D01*
X107000500Y-73513011D01*
X107000500Y-73276989D01*
X106969693Y-73042986D01*
X106908606Y-72815007D01*
X106818284Y-72596951D01*
X106818282Y-72596948D01*
X106818280Y-72596943D01*
X106761857Y-72499217D01*
X106700273Y-72392550D01*
X106632734Y-72304531D01*
X106554121Y-72202080D01*
X106555286Y-72201185D01*
X106528469Y-72143381D01*
X106537998Y-72074165D01*
X106554619Y-72048302D01*
X106554121Y-72047920D01*
X106669427Y-71897649D01*
X106700273Y-71857450D01*
X106818284Y-71653049D01*
X106908606Y-71434993D01*
X106969693Y-71207014D01*
X107000500Y-70973011D01*
X107000500Y-70736989D01*
X106969693Y-70502986D01*
X106908606Y-70275007D01*
X106818284Y-70056951D01*
X106818282Y-70056948D01*
X106818280Y-70056943D01*
X106776118Y-69983918D01*
X106700273Y-69852550D01*
X106667105Y-69809325D01*
X106554121Y-69662080D01*
X106555286Y-69661185D01*
X106528469Y-69603381D01*
X106537998Y-69534165D01*
X106554619Y-69508302D01*
X106554121Y-69507920D01*
X106608814Y-69436641D01*
X106700273Y-69317450D01*
X106818284Y-69113049D01*
X106908606Y-68894993D01*
X106969693Y-68667014D01*
X107000500Y-68433011D01*
X107000500Y-68196989D01*
X106969693Y-67962986D01*
X106908606Y-67735007D01*
X106818284Y-67516951D01*
X106818282Y-67516948D01*
X106818280Y-67516943D01*
X106776118Y-67443918D01*
X106700273Y-67312550D01*
X106667105Y-67269325D01*
X106554121Y-67122080D01*
X106555286Y-67121185D01*
X106528469Y-67063381D01*
X106537998Y-66994165D01*
X106554619Y-66968302D01*
X106554121Y-66967920D01*
X106608814Y-66896641D01*
X106700273Y-66777450D01*
X106818284Y-66573049D01*
X106908606Y-66354993D01*
X106969693Y-66127014D01*
X107000500Y-65893011D01*
X107000500Y-65656989D01*
X106969693Y-65422986D01*
X106908606Y-65195007D01*
X106818284Y-64976951D01*
X106818282Y-64976948D01*
X106818280Y-64976943D01*
X106767901Y-64889685D01*
X106700273Y-64772550D01*
X106667105Y-64729325D01*
X106554121Y-64582080D01*
X106555286Y-64581185D01*
X106528469Y-64523381D01*
X106537998Y-64454165D01*
X106554619Y-64428302D01*
X106554121Y-64427920D01*
X106638168Y-64318387D01*
X106700273Y-64237450D01*
X106818284Y-64033049D01*
X106908606Y-63814993D01*
X106969693Y-63587014D01*
X107000500Y-63353011D01*
X107000500Y-63116989D01*
X106969693Y-62882986D01*
X106908606Y-62655007D01*
X106818284Y-62436951D01*
X106818282Y-62436948D01*
X106818280Y-62436943D01*
X106776118Y-62363918D01*
X106700273Y-62232550D01*
X106601073Y-62103270D01*
X106554121Y-62042080D01*
X106555286Y-62041185D01*
X106544486Y-62017906D01*
X106529599Y-61989775D01*
X106529882Y-61986427D01*
X106528469Y-61983381D01*
X106532809Y-61951854D01*
X106535493Y-61920154D01*
X106537667Y-61916567D01*
X106537998Y-61914165D01*
X106552810Y-61889401D01*
X106555875Y-61885415D01*
X106556592Y-61884699D01*
X106626264Y-61793901D01*
X106654395Y-61773408D01*
X106682605Y-61752811D01*
X106682694Y-61752795D01*
X106682739Y-61752763D01*
X106682951Y-61752750D01*
X106724553Y-61745500D01*
X111708507Y-61745500D01*
X111775546Y-61765185D01*
X111796188Y-61781819D01*
X125511232Y-75496863D01*
X125534036Y-75528249D01*
X125558768Y-75576788D01*
X125660586Y-75716928D01*
X125783072Y-75839414D01*
X125923212Y-75941232D01*
X126077555Y-76019873D01*
X126242299Y-76073402D01*
X126413389Y-76100500D01*
X128522863Y-76100500D01*
X128589902Y-76120185D01*
X128630250Y-76162500D01*
X128666424Y-76225155D01*
X128842024Y-76454002D01*
X128842030Y-76454009D01*
X129045990Y-76657969D01*
X129045997Y-76657975D01*
X129143836Y-76733049D01*
X129274844Y-76833575D01*
X129274851Y-76833579D01*
X129524647Y-76977800D01*
X129524663Y-76977808D01*
X129791139Y-77088185D01*
X129791145Y-77088186D01*
X129791155Y-77088191D01*
X130069783Y-77162849D01*
X130355772Y-77200500D01*
X130355779Y-77200500D01*
X130644221Y-77200500D01*
X130644228Y-77200500D01*
X130930217Y-77162849D01*
X131208845Y-77088191D01*
X131208857Y-77088185D01*
X131208860Y-77088185D01*
X131475336Y-76977808D01*
X131475339Y-76977806D01*
X131475345Y-76977804D01*
X131725156Y-76833575D01*
X131954004Y-76657974D01*
X132157974Y-76454004D01*
X132333575Y-76225156D01*
X132477804Y-75975345D01*
X132491935Y-75941231D01*
X132588185Y-75708860D01*
X132588185Y-75708857D01*
X132588191Y-75708845D01*
X132662849Y-75430217D01*
X132700500Y-75144228D01*
X132700500Y-74855772D01*
X132662849Y-74569783D01*
X132588191Y-74291155D01*
X132588186Y-74291145D01*
X132588185Y-74291139D01*
X132477808Y-74024663D01*
X132477800Y-74024647D01*
X132333579Y-73774851D01*
X132333575Y-73774844D01*
X132157974Y-73545996D01*
X132157969Y-73545990D01*
X131954009Y-73342030D01*
X131954002Y-73342024D01*
X131725164Y-73166431D01*
X131725162Y-73166429D01*
X131725156Y-73166425D01*
X131725151Y-73166422D01*
X131725148Y-73166420D01*
X131475352Y-73022199D01*
X131475336Y-73022191D01*
X131208860Y-72911814D01*
X131208848Y-72911810D01*
X131208845Y-72911809D01*
X130930217Y-72837151D01*
X130930211Y-72837150D01*
X130930206Y-72837149D01*
X130644238Y-72799501D01*
X130644233Y-72799500D01*
X130644228Y-72799500D01*
X130355772Y-72799500D01*
X130355766Y-72799500D01*
X130355761Y-72799501D01*
X130069793Y-72837149D01*
X130069786Y-72837150D01*
X130069783Y-72837151D01*
X129791155Y-72911809D01*
X129791139Y-72911814D01*
X129524663Y-73022191D01*
X129524647Y-73022199D01*
X129274851Y-73166420D01*
X129274835Y-73166431D01*
X129045997Y-73342024D01*
X129045990Y-73342030D01*
X128842030Y-73545990D01*
X128842024Y-73545997D01*
X128666424Y-73774844D01*
X128630250Y-73837500D01*
X128579683Y-73885716D01*
X128522863Y-73899500D01*
X126936493Y-73899500D01*
X126869454Y-73879815D01*
X126848812Y-73863181D01*
X113015317Y-60029686D01*
X113015297Y-60029664D01*
X112864657Y-59879024D01*
X112755984Y-59806412D01*
X112692598Y-59764059D01*
X112661440Y-59751153D01*
X112501420Y-59684870D01*
X112501412Y-59684868D01*
X112298469Y-59644500D01*
X112298465Y-59644500D01*
X106724553Y-59644500D01*
X106720964Y-59643446D01*
X106717321Y-59644289D01*
X106687696Y-59633677D01*
X106657514Y-59624815D01*
X106654038Y-59621621D01*
X106651544Y-59620728D01*
X106626762Y-59596557D01*
X106626264Y-59596099D01*
X106626120Y-59595911D01*
X106556592Y-59505301D01*
X106555875Y-59504584D01*
X106552810Y-59500599D01*
X106541559Y-59471597D01*
X106528469Y-59443381D01*
X106529030Y-59439299D01*
X106527541Y-59435459D01*
X106533754Y-59404985D01*
X106537998Y-59374165D01*
X106540988Y-59369511D01*
X106541501Y-59366998D01*
X106544742Y-59363671D01*
X106554619Y-59348302D01*
X106554121Y-59347920D01*
X106626177Y-59254014D01*
X106682605Y-59212811D01*
X106724553Y-59205500D01*
X114168507Y-59205500D01*
X114235546Y-59225185D01*
X114256188Y-59241819D01*
X117976947Y-62962578D01*
X117976976Y-62962609D01*
X118126392Y-63112025D01*
X118126395Y-63112027D01*
X118298452Y-63226991D01*
X118489630Y-63306180D01*
X118692580Y-63346549D01*
X118692584Y-63346550D01*
X118692585Y-63346550D01*
X121911408Y-63346550D01*
X121978447Y-63366235D01*
X122009783Y-63395063D01*
X122023087Y-63412400D01*
X122023095Y-63412410D01*
X122179689Y-63569004D01*
X122179696Y-63569010D01*
X122304809Y-63665012D01*
X122355400Y-63703832D01*
X122355407Y-63703836D01*
X122547192Y-63814564D01*
X122547197Y-63814566D01*
X122547200Y-63814568D01*
X122649506Y-63856944D01*
X122751810Y-63899320D01*
X122751811Y-63899320D01*
X122751813Y-63899321D01*
X122965738Y-63956642D01*
X123185314Y-63985550D01*
X123185321Y-63985550D01*
X123406779Y-63985550D01*
X123406786Y-63985550D01*
X123626362Y-63956642D01*
X123840287Y-63899321D01*
X124044900Y-63814568D01*
X124236700Y-63703832D01*
X124412405Y-63569009D01*
X124569009Y-63412405D01*
X124703832Y-63236700D01*
X124814568Y-63044900D01*
X124899321Y-62840287D01*
X124956642Y-62626362D01*
X124985550Y-62406786D01*
X124985550Y-62313500D01*
X125005235Y-62246461D01*
X125058039Y-62200706D01*
X125109550Y-62189500D01*
X125202829Y-62189500D01*
X125202836Y-62189500D01*
X125422412Y-62160592D01*
X125636337Y-62103271D01*
X125840950Y-62018518D01*
X126032750Y-61907782D01*
X126208455Y-61772959D01*
X126365059Y-61616355D01*
X126370811Y-61608857D01*
X126378367Y-61599013D01*
X126434795Y-61557811D01*
X126476742Y-61550500D01*
X130603466Y-61550500D01*
X130603467Y-61550499D01*
X130806420Y-61510130D01*
X130997598Y-61430941D01*
X131043189Y-61400478D01*
X131169655Y-61315977D01*
X131315977Y-61169655D01*
X131315977Y-61169653D01*
X131326185Y-61159446D01*
X131326186Y-61159443D01*
X132315977Y-60169655D01*
X132430942Y-59997598D01*
X132472631Y-59896951D01*
X132500220Y-59830346D01*
X132510128Y-59806424D01*
X132510130Y-59806420D01*
X132534308Y-59684870D01*
X132546254Y-59624815D01*
X132550501Y-59603466D01*
X132550501Y-59391424D01*
X132550500Y-59391398D01*
X132550500Y-55264311D01*
X132570185Y-55197272D01*
X132586819Y-55176630D01*
X132639825Y-55123624D01*
X132720793Y-55042656D01*
X132868870Y-54838845D01*
X132983241Y-54614379D01*
X133061090Y-54374785D01*
X133100500Y-54125962D01*
X133100500Y-53874038D01*
X133061090Y-53625215D01*
X132983241Y-53385621D01*
X132983239Y-53385618D01*
X132983239Y-53385616D01*
X132941747Y-53304184D01*
X132868870Y-53161155D01*
X132849952Y-53135117D01*
X132720798Y-52957350D01*
X132720794Y-52957345D01*
X132586819Y-52823370D01*
X132553334Y-52762047D01*
X132550500Y-52735689D01*
X132550500Y-49764311D01*
X132570185Y-49697272D01*
X132586819Y-49676630D01*
X132639825Y-49623624D01*
X132720793Y-49542656D01*
X132868870Y-49338845D01*
X132983241Y-49114379D01*
X133061090Y-48874785D01*
X133100500Y-48625962D01*
X133100500Y-48374038D01*
X133061090Y-48125215D01*
X132983241Y-47885621D01*
X132983239Y-47885618D01*
X132983239Y-47885616D01*
X132941747Y-47804184D01*
X132868870Y-47661155D01*
X132849952Y-47635117D01*
X132720798Y-47457350D01*
X132720794Y-47457345D01*
X132586819Y-47323370D01*
X132553334Y-47262047D01*
X132550500Y-47235689D01*
X132550500Y-44264311D01*
X132570185Y-44197272D01*
X132586819Y-44176630D01*
X132639825Y-44123624D01*
X132720793Y-44042656D01*
X132868870Y-43838845D01*
X132983241Y-43614379D01*
X133061090Y-43374785D01*
X133100500Y-43125962D01*
X133100500Y-42874038D01*
X133061090Y-42625215D01*
X132983241Y-42385621D01*
X132983239Y-42385618D01*
X132983239Y-42385616D01*
X132941747Y-42304184D01*
X132868870Y-42161155D01*
X132849952Y-42135117D01*
X132720798Y-41957350D01*
X132720794Y-41957345D01*
X132586819Y-41823370D01*
X132553334Y-41762047D01*
X132550500Y-41735689D01*
X132550500Y-38764311D01*
X132570185Y-38697272D01*
X132586819Y-38676630D01*
X132639825Y-38623624D01*
X132720793Y-38542656D01*
X132868870Y-38338845D01*
X132983241Y-38114379D01*
X133061090Y-37874785D01*
X133100500Y-37625962D01*
X133100500Y-37374038D01*
X133061090Y-37125215D01*
X132983241Y-36885621D01*
X132983239Y-36885618D01*
X132983239Y-36885616D01*
X132941747Y-36804184D01*
X132868870Y-36661155D01*
X132849952Y-36635117D01*
X132720798Y-36457350D01*
X132720794Y-36457345D01*
X132542654Y-36279205D01*
X132542649Y-36279201D01*
X132338848Y-36131132D01*
X132338847Y-36131131D01*
X132338845Y-36131130D01*
X132268747Y-36095413D01*
X132114383Y-36016760D01*
X131874785Y-35938910D01*
X131831744Y-35932093D01*
X131625962Y-35899500D01*
X131374038Y-35899500D01*
X131249626Y-35919205D01*
X131125214Y-35938910D01*
X130885616Y-36016760D01*
X130661151Y-36131132D01*
X130457350Y-36279201D01*
X130457345Y-36279205D01*
X130279205Y-36457345D01*
X130279201Y-36457350D01*
X130131132Y-36661151D01*
X130016760Y-36885616D01*
X129938910Y-37125214D01*
X129899500Y-37374038D01*
X129899500Y-37625961D01*
X129938910Y-37874785D01*
X130016760Y-38114383D01*
X130131132Y-38338848D01*
X130279201Y-38542649D01*
X130279205Y-38542654D01*
X130413181Y-38676630D01*
X130446666Y-38737953D01*
X130449500Y-38764311D01*
X130449500Y-41735689D01*
X130429815Y-41802728D01*
X130413181Y-41823370D01*
X130279205Y-41957345D01*
X130279201Y-41957350D01*
X130131132Y-42161151D01*
X130016760Y-42385616D01*
X129938910Y-42625214D01*
X129899500Y-42874038D01*
X129899500Y-43125961D01*
X129938910Y-43374785D01*
X130016760Y-43614383D01*
X130083593Y-43745548D01*
X130130045Y-43836716D01*
X130131132Y-43838848D01*
X130279201Y-44042649D01*
X130279205Y-44042654D01*
X130413181Y-44176630D01*
X130446666Y-44237953D01*
X130449500Y-44264311D01*
X130449500Y-47235689D01*
X130429815Y-47302728D01*
X130413181Y-47323370D01*
X130279205Y-47457345D01*
X130279201Y-47457350D01*
X130131132Y-47661151D01*
X130016760Y-47885616D01*
X129938910Y-48125214D01*
X129899500Y-48374038D01*
X129899500Y-48625961D01*
X129938910Y-48874785D01*
X130016760Y-49114383D01*
X130131132Y-49338848D01*
X130279201Y-49542649D01*
X130279205Y-49542654D01*
X130413181Y-49676630D01*
X130446666Y-49737953D01*
X130449500Y-49764311D01*
X130449500Y-52735689D01*
X130429815Y-52802728D01*
X130413181Y-52823370D01*
X130279205Y-52957345D01*
X130279201Y-52957350D01*
X130131132Y-53161151D01*
X130016760Y-53385616D01*
X129938910Y-53625214D01*
X129899657Y-53873045D01*
X129899500Y-53874038D01*
X129899500Y-54125962D01*
X129937104Y-54363381D01*
X129938910Y-54374785D01*
X130016760Y-54614383D01*
X130095413Y-54768747D01*
X130119974Y-54816951D01*
X130131132Y-54838848D01*
X130279201Y-55042649D01*
X130279205Y-55042654D01*
X130413181Y-55176630D01*
X130446666Y-55237953D01*
X130449500Y-55264311D01*
X130449500Y-59013506D01*
X130429815Y-59080545D01*
X130413181Y-59101187D01*
X130101188Y-59413181D01*
X130039865Y-59446666D01*
X130013507Y-59449500D01*
X126476742Y-59449500D01*
X126409703Y-59429815D01*
X126378367Y-59400987D01*
X126365062Y-59383649D01*
X126365054Y-59383639D01*
X126208460Y-59227045D01*
X126208453Y-59227039D01*
X126032758Y-59092224D01*
X126032756Y-59092222D01*
X126032750Y-59092218D01*
X126032745Y-59092215D01*
X126032742Y-59092213D01*
X125840957Y-58981485D01*
X125840946Y-58981480D01*
X125636339Y-58896729D01*
X125493720Y-58858515D01*
X125422412Y-58839408D01*
X125394965Y-58835794D01*
X125202843Y-58810500D01*
X125202836Y-58810500D01*
X124981364Y-58810500D01*
X124981356Y-58810500D01*
X124761788Y-58839408D01*
X124547860Y-58896729D01*
X124343253Y-58981480D01*
X124343242Y-58981485D01*
X124151457Y-59092213D01*
X124151441Y-59092224D01*
X123975746Y-59227039D01*
X123975739Y-59227045D01*
X123819145Y-59383639D01*
X123819139Y-59383646D01*
X123684324Y-59559341D01*
X123684313Y-59559357D01*
X123573585Y-59751142D01*
X123573580Y-59751153D01*
X123488829Y-59955760D01*
X123431508Y-60169688D01*
X123402600Y-60389256D01*
X123402600Y-60482550D01*
X123382915Y-60549589D01*
X123330111Y-60595344D01*
X123278600Y-60606550D01*
X123185306Y-60606550D01*
X122965738Y-60635458D01*
X122751810Y-60692779D01*
X122547203Y-60777530D01*
X122547192Y-60777535D01*
X122355407Y-60888263D01*
X122355391Y-60888274D01*
X122179696Y-61023089D01*
X122179689Y-61023095D01*
X122023095Y-61179689D01*
X122023087Y-61179699D01*
X122009783Y-61197037D01*
X121953355Y-61238239D01*
X121911408Y-61245550D01*
X119282543Y-61245550D01*
X119215504Y-61225865D01*
X119194862Y-61209231D01*
X115475317Y-57489686D01*
X115475297Y-57489664D01*
X115324657Y-57339024D01*
X115238626Y-57281541D01*
X115152598Y-57224059D01*
X114961420Y-57144870D01*
X114961412Y-57144868D01*
X114758469Y-57104500D01*
X114758465Y-57104500D01*
X106724553Y-57104500D01*
X106720964Y-57103446D01*
X106717321Y-57104289D01*
X106687696Y-57093677D01*
X106657514Y-57084815D01*
X106654038Y-57081621D01*
X106651544Y-57080728D01*
X106626762Y-57056557D01*
X106626264Y-57056099D01*
X106626120Y-57055911D01*
X106556592Y-56965301D01*
X106555875Y-56964584D01*
X106552810Y-56960599D01*
X106541559Y-56931597D01*
X106528469Y-56903381D01*
X106529030Y-56899299D01*
X106527541Y-56895459D01*
X106533754Y-56864985D01*
X106537998Y-56834165D01*
X106540988Y-56829511D01*
X106541501Y-56826998D01*
X106544742Y-56823671D01*
X106554619Y-56808302D01*
X106554121Y-56807920D01*
X106608814Y-56736641D01*
X106700273Y-56617450D01*
X106818284Y-56413049D01*
X106908606Y-56194993D01*
X106969693Y-55967014D01*
X107000500Y-55733011D01*
X107000500Y-55496989D01*
X106969693Y-55262986D01*
X106908606Y-55035007D01*
X106818284Y-54816951D01*
X106818282Y-54816948D01*
X106818280Y-54816943D01*
X106776118Y-54743918D01*
X106700273Y-54612550D01*
X106667105Y-54569325D01*
X106554121Y-54422080D01*
X106555286Y-54421185D01*
X106528469Y-54363381D01*
X106537998Y-54294165D01*
X106554619Y-54268302D01*
X106554121Y-54267920D01*
X106663049Y-54125961D01*
X106700273Y-54077450D01*
X106818284Y-53873049D01*
X106908606Y-53654993D01*
X106969693Y-53427014D01*
X107000500Y-53193011D01*
X107000500Y-52956989D01*
X106969693Y-52722986D01*
X106908606Y-52495007D01*
X106818284Y-52276951D01*
X106818282Y-52276948D01*
X106818280Y-52276943D01*
X106776118Y-52203918D01*
X106700273Y-52072550D01*
X106667105Y-52029325D01*
X106554121Y-51882080D01*
X106555286Y-51881185D01*
X106528469Y-51823381D01*
X106537998Y-51754165D01*
X106554619Y-51728302D01*
X106554121Y-51727920D01*
X106608814Y-51656641D01*
X106700273Y-51537450D01*
X106818284Y-51333049D01*
X106908606Y-51114993D01*
X106969693Y-50887014D01*
X107000500Y-50653011D01*
X107000500Y-50416989D01*
X106969693Y-50182986D01*
X106908606Y-49955007D01*
X106818284Y-49736951D01*
X106818282Y-49736948D01*
X106818280Y-49736943D01*
X106752857Y-49623629D01*
X106700273Y-49532550D01*
X106633058Y-49444954D01*
X106554121Y-49342080D01*
X106555286Y-49341185D01*
X106528469Y-49283381D01*
X106537998Y-49214165D01*
X106554619Y-49188302D01*
X106554121Y-49187920D01*
X106610550Y-49114379D01*
X106700273Y-48997450D01*
X106818284Y-48793049D01*
X106908606Y-48574993D01*
X106969693Y-48347014D01*
X107000500Y-48113011D01*
X107000500Y-47876989D01*
X106969693Y-47642986D01*
X106908606Y-47415007D01*
X106818284Y-47196951D01*
X106818282Y-47196948D01*
X106818280Y-47196943D01*
X106761003Y-47097737D01*
X106700273Y-46992550D01*
X106659114Y-46938910D01*
X106554121Y-46802080D01*
X106555286Y-46801185D01*
X106528469Y-46743381D01*
X106537998Y-46674165D01*
X106554619Y-46648302D01*
X106554121Y-46647920D01*
X106656113Y-46515000D01*
X106700273Y-46457450D01*
X106818284Y-46253049D01*
X106908606Y-46034993D01*
X106969693Y-45807014D01*
X107000500Y-45573011D01*
X107000500Y-45336989D01*
X106969693Y-45102986D01*
X106908606Y-44875007D01*
X106818284Y-44656951D01*
X106818282Y-44656948D01*
X106818280Y-44656943D01*
X106766874Y-44567906D01*
X106700273Y-44452550D01*
X106556592Y-44265301D01*
X106556587Y-44265295D01*
X106389704Y-44098412D01*
X106389697Y-44098406D01*
X106202454Y-43954730D01*
X106202451Y-43954728D01*
X106202450Y-43954727D01*
X106120957Y-43907677D01*
X105998056Y-43836719D01*
X105998045Y-43836714D01*
X105779989Y-43746392D01*
X105779986Y-43746391D01*
X105740941Y-43735929D01*
X105681281Y-43699564D01*
X105650753Y-43636716D01*
X105659048Y-43567341D01*
X105703535Y-43513463D01*
X105711009Y-43508784D01*
X105754612Y-43483611D01*
X105936661Y-43343919D01*
X105936665Y-43343914D01*
X105936670Y-43343911D01*
X106098911Y-43181670D01*
X106098914Y-43181665D01*
X106098919Y-43181661D01*
X106238611Y-42999612D01*
X106353344Y-42800888D01*
X106441158Y-42588887D01*
X106500548Y-42367238D01*
X106530500Y-42139734D01*
X106530500Y-41910266D01*
X106500548Y-41682762D01*
X106441158Y-41461113D01*
X106386268Y-41328597D01*
X106353349Y-41249123D01*
X106353346Y-41249117D01*
X106353344Y-41249112D01*
X106238611Y-41050388D01*
X106238608Y-41050385D01*
X106238607Y-41050382D01*
X106098918Y-40868338D01*
X106098911Y-40868330D01*
X105936670Y-40706089D01*
X105936661Y-40706081D01*
X105754617Y-40566392D01*
X105555890Y-40451657D01*
X105555876Y-40451650D01*
X105343887Y-40363842D01*
X105122238Y-40304452D01*
X105084215Y-40299446D01*
X104894741Y-40274500D01*
X104894734Y-40274500D01*
X104665266Y-40274500D01*
X104665258Y-40274500D01*
X104448715Y-40303009D01*
X104437762Y-40304452D01*
X104344076Y-40329554D01*
X104216112Y-40363842D01*
X104004123Y-40451650D01*
X104004109Y-40451657D01*
X103805382Y-40566392D01*
X103623338Y-40706081D01*
X103461081Y-40868338D01*
X103321392Y-41050382D01*
X103206657Y-41249109D01*
X103206650Y-41249123D01*
X103118842Y-41461112D01*
X103059453Y-41682759D01*
X103059451Y-41682770D01*
X103029500Y-41910258D01*
X102500000Y-41910258D01*
X102500000Y-33378711D01*
X106649500Y-33378711D01*
X106649500Y-33621288D01*
X106681161Y-33861785D01*
X106743947Y-34096104D01*
X106801674Y-34235468D01*
X106836776Y-34320212D01*
X106958064Y-34530289D01*
X106958066Y-34530292D01*
X106958067Y-34530293D01*
X107105733Y-34722736D01*
X107105739Y-34722743D01*
X107277256Y-34894260D01*
X107277262Y-34894265D01*
X107469711Y-35041936D01*
X107679788Y-35163224D01*
X107903900Y-35256054D01*
X108138211Y-35318838D01*
X108318586Y-35342584D01*
X108378711Y-35350500D01*
X108378712Y-35350500D01*
X108621289Y-35350500D01*
X108669388Y-35344167D01*
X108861789Y-35318838D01*
X109096100Y-35256054D01*
X109320212Y-35163224D01*
X109530289Y-35041936D01*
X109722738Y-34894265D01*
X109894265Y-34722738D01*
X110041936Y-34530289D01*
X110163224Y-34320212D01*
X110256054Y-34096100D01*
X110318838Y-33861789D01*
X110350500Y-33621288D01*
X110350500Y-33378712D01*
X110318838Y-33138211D01*
X110256054Y-32903900D01*
X110163224Y-32679788D01*
X110041936Y-32469711D01*
X109894265Y-32277262D01*
X109894260Y-32277256D01*
X109722743Y-32105739D01*
X109722736Y-32105733D01*
X109530293Y-31958067D01*
X109530292Y-31958066D01*
X109530289Y-31958064D01*
X109320212Y-31836776D01*
X109320205Y-31836773D01*
X109096104Y-31743947D01*
X108861785Y-31681161D01*
X108621289Y-31649500D01*
X108621288Y-31649500D01*
X108378712Y-31649500D01*
X108378711Y-31649500D01*
X108138214Y-31681161D01*
X107903895Y-31743947D01*
X107679794Y-31836773D01*
X107679785Y-31836777D01*
X107469706Y-31958067D01*
X107277263Y-32105733D01*
X107277256Y-32105739D01*
X107105739Y-32277256D01*
X107105733Y-32277263D01*
X106958067Y-32469706D01*
X106836777Y-32679785D01*
X106836773Y-32679794D01*
X106743947Y-32903895D01*
X106681161Y-33138214D01*
X106649500Y-33378711D01*
X102500000Y-33378711D01*
X102500000Y-30624500D01*
X102519685Y-30557461D01*
X102572489Y-30511706D01*
X102624000Y-30500500D01*
X138375500Y-30500500D01*
X138442539Y-30520185D01*
X138488294Y-30572989D01*
X138499500Y-30624500D01*
X138499500Y-129375500D01*
X138479815Y-129442539D01*
X138427011Y-129488294D01*
X138375500Y-129499500D01*
X39624500Y-129499500D01*
X39557461Y-129479815D01*
X39511706Y-129427011D01*
X39500500Y-129375500D01*
X39500500Y-125878711D01*
X41149500Y-125878711D01*
X41149500Y-126121288D01*
X41181161Y-126361785D01*
X41243947Y-126596104D01*
X41336773Y-126820205D01*
X41336776Y-126820212D01*
X41458064Y-127030289D01*
X41458066Y-127030292D01*
X41458067Y-127030293D01*
X41605733Y-127222736D01*
X41605739Y-127222743D01*
X41777256Y-127394260D01*
X41777262Y-127394265D01*
X41969711Y-127541936D01*
X42179788Y-127663224D01*
X42403900Y-127756054D01*
X42638211Y-127818838D01*
X42818586Y-127842584D01*
X42878711Y-127850500D01*
X42878712Y-127850500D01*
X43121289Y-127850500D01*
X43169388Y-127844167D01*
X43361789Y-127818838D01*
X43596100Y-127756054D01*
X43820212Y-127663224D01*
X44030289Y-127541936D01*
X44222738Y-127394265D01*
X44394265Y-127222738D01*
X44541936Y-127030289D01*
X44663224Y-126820212D01*
X44756054Y-126596100D01*
X44818838Y-126361789D01*
X44850500Y-126121288D01*
X44850500Y-125878712D01*
X44850500Y-125878711D01*
X133649500Y-125878711D01*
X133649500Y-126121288D01*
X133681161Y-126361785D01*
X133743947Y-126596104D01*
X133836773Y-126820205D01*
X133836776Y-126820212D01*
X133958064Y-127030289D01*
X133958066Y-127030292D01*
X133958067Y-127030293D01*
X134105733Y-127222736D01*
X134105739Y-127222743D01*
X134277256Y-127394260D01*
X134277262Y-127394265D01*
X134469711Y-127541936D01*
X134679788Y-127663224D01*
X134903900Y-127756054D01*
X135138211Y-127818838D01*
X135318586Y-127842584D01*
X135378711Y-127850500D01*
X135378712Y-127850500D01*
X135621289Y-127850500D01*
X135669388Y-127844167D01*
X135861789Y-127818838D01*
X136096100Y-127756054D01*
X136320212Y-127663224D01*
X136530289Y-127541936D01*
X136722738Y-127394265D01*
X136894265Y-127222738D01*
X137041936Y-127030289D01*
X137163224Y-126820212D01*
X137256054Y-126596100D01*
X137318838Y-126361789D01*
X137350500Y-126121288D01*
X137350500Y-125878712D01*
X137318838Y-125638211D01*
X137256054Y-125403900D01*
X137163224Y-125179788D01*
X137041936Y-124969711D01*
X136894265Y-124777262D01*
X136894260Y-124777256D01*
X136722743Y-124605739D01*
X136722736Y-124605733D01*
X136530293Y-124458067D01*
X136530292Y-124458066D01*
X136530289Y-124458064D01*
X136320212Y-124336776D01*
X136320205Y-124336773D01*
X136096104Y-124243947D01*
X135861785Y-124181161D01*
X135621289Y-124149500D01*
X135621288Y-124149500D01*
X135378712Y-124149500D01*
X135378711Y-124149500D01*
X135138214Y-124181161D01*
X134903895Y-124243947D01*
X134679794Y-124336773D01*
X134679785Y-124336777D01*
X134469706Y-124458067D01*
X134277263Y-124605733D01*
X134277256Y-124605739D01*
X134105739Y-124777256D01*
X134105733Y-124777263D01*
X133958067Y-124969706D01*
X133836777Y-125179785D01*
X133836773Y-125179794D01*
X133743947Y-125403895D01*
X133681161Y-125638214D01*
X133649500Y-125878711D01*
X44850500Y-125878711D01*
X44818838Y-125638211D01*
X44756054Y-125403900D01*
X44663224Y-125179788D01*
X44541936Y-124969711D01*
X44394265Y-124777262D01*
X44394260Y-124777256D01*
X44222743Y-124605739D01*
X44222736Y-124605733D01*
X44030293Y-124458067D01*
X44030292Y-124458066D01*
X44030289Y-124458064D01*
X43820212Y-124336776D01*
X43820205Y-124336773D01*
X43596104Y-124243947D01*
X43361785Y-124181161D01*
X43121289Y-124149500D01*
X43121288Y-124149500D01*
X42878712Y-124149500D01*
X42878711Y-124149500D01*
X42638214Y-124181161D01*
X42403895Y-124243947D01*
X42179794Y-124336773D01*
X42179785Y-124336777D01*
X41969706Y-124458067D01*
X41777263Y-124605733D01*
X41777256Y-124605739D01*
X41605739Y-124777256D01*
X41605733Y-124777263D01*
X41458067Y-124969706D01*
X41336777Y-125179785D01*
X41336773Y-125179794D01*
X41243947Y-125403895D01*
X41181161Y-125638214D01*
X41149500Y-125878711D01*
X39500500Y-125878711D01*
X39500500Y-97307029D01*
X40087500Y-97307029D01*
X40087500Y-97552970D01*
X40125974Y-97795887D01*
X40201972Y-98029789D01*
X40201973Y-98029792D01*
X40313632Y-98248932D01*
X40458185Y-98447894D01*
X40458189Y-98447899D01*
X40632100Y-98621810D01*
X40632105Y-98621814D01*
X40781700Y-98730500D01*
X40831071Y-98766370D01*
X40974322Y-98839360D01*
X41050207Y-98878026D01*
X41050210Y-98878027D01*
X41167161Y-98916026D01*
X41284114Y-98954026D01*
X41527029Y-98992500D01*
X41527030Y-98992500D01*
X41772970Y-98992500D01*
X41772971Y-98992500D01*
X42015886Y-98954026D01*
X42249792Y-98878026D01*
X42468929Y-98766370D01*
X42667901Y-98621809D01*
X42841809Y-98447901D01*
X42986370Y-98248929D01*
X43098026Y-98029792D01*
X43174026Y-97795886D01*
X43212500Y-97552971D01*
X43212500Y-97307029D01*
X47707500Y-97307029D01*
X47707500Y-97552970D01*
X47745974Y-97795887D01*
X47821972Y-98029789D01*
X47821973Y-98029792D01*
X47933631Y-98248931D01*
X47945816Y-98265701D01*
X47969298Y-98331506D01*
X47969500Y-98338589D01*
X47969500Y-113872351D01*
X48001522Y-114074535D01*
X48033151Y-114171875D01*
X48064781Y-114269223D01*
X48111246Y-114360414D01*
X48157713Y-114451611D01*
X48278034Y-114617219D01*
X48652781Y-114991966D01*
X48818389Y-115112287D01*
X48909585Y-115158753D01*
X49000776Y-115205218D01*
X49000778Y-115205218D01*
X49000781Y-115205220D01*
X49054696Y-115222738D01*
X49195465Y-115268477D01*
X49397648Y-115300500D01*
X51625500Y-115300500D01*
X51692539Y-115320185D01*
X51738294Y-115372989D01*
X51749500Y-115424500D01*
X51749500Y-115544960D01*
X51764630Y-115679249D01*
X51764631Y-115679254D01*
X51824211Y-115849523D01*
X51920184Y-116002262D01*
X52047738Y-116129816D01*
X52200478Y-116225789D01*
X52370745Y-116285368D01*
X52370750Y-116285369D01*
X52461246Y-116295565D01*
X52505040Y-116300499D01*
X52505043Y-116300500D01*
X52505046Y-116300500D01*
X55594957Y-116300500D01*
X55594958Y-116300499D01*
X55662104Y-116292934D01*
X55729249Y-116285369D01*
X55729252Y-116285368D01*
X55729255Y-116285368D01*
X55899522Y-116225789D01*
X56052262Y-116129816D01*
X56179816Y-116002262D01*
X56275789Y-115849522D01*
X56335368Y-115679255D01*
X56337175Y-115663222D01*
X56350499Y-115544960D01*
X56350500Y-115544956D01*
X56350500Y-113878711D01*
X60644500Y-113878711D01*
X60644500Y-114121288D01*
X60676161Y-114361785D01*
X60738947Y-114596104D01*
X60831773Y-114820205D01*
X60831776Y-114820212D01*
X60953064Y-115030289D01*
X60953066Y-115030292D01*
X60953067Y-115030293D01*
X61100733Y-115222736D01*
X61100739Y-115222743D01*
X61272256Y-115394260D01*
X61272262Y-115394265D01*
X61464711Y-115541936D01*
X61674788Y-115663224D01*
X61898900Y-115756054D01*
X62133211Y-115818838D01*
X62313586Y-115842584D01*
X62373711Y-115850500D01*
X62373712Y-115850500D01*
X62616289Y-115850500D01*
X62664388Y-115844167D01*
X62856789Y-115818838D01*
X63091100Y-115756054D01*
X63315212Y-115663224D01*
X63525289Y-115541936D01*
X63717738Y-115394265D01*
X63889265Y-115222738D01*
X64036936Y-115030289D01*
X64158224Y-114820212D01*
X64251054Y-114596100D01*
X64313838Y-114361789D01*
X64345500Y-114121288D01*
X64345500Y-113878712D01*
X64345500Y-113878711D01*
X116254500Y-113878711D01*
X116254500Y-114121288D01*
X116286161Y-114361785D01*
X116348947Y-114596104D01*
X116441773Y-114820205D01*
X116441776Y-114820212D01*
X116563064Y-115030289D01*
X116563066Y-115030292D01*
X116563067Y-115030293D01*
X116710733Y-115222736D01*
X116710739Y-115222743D01*
X116882256Y-115394260D01*
X116882262Y-115394265D01*
X117074711Y-115541936D01*
X117284788Y-115663224D01*
X117508900Y-115756054D01*
X117743211Y-115818838D01*
X117923586Y-115842584D01*
X117983711Y-115850500D01*
X117983712Y-115850500D01*
X118226289Y-115850500D01*
X118274388Y-115844167D01*
X118466789Y-115818838D01*
X118701100Y-115756054D01*
X118925212Y-115663224D01*
X119135289Y-115541936D01*
X119327738Y-115394265D01*
X119499265Y-115222738D01*
X119646936Y-115030289D01*
X119768224Y-114820212D01*
X119861054Y-114596100D01*
X119923838Y-114361789D01*
X119955500Y-114121288D01*
X119955500Y-113878712D01*
X119923838Y-113638211D01*
X119861054Y-113403900D01*
X119768224Y-113179788D01*
X119646936Y-112969711D01*
X119499265Y-112777262D01*
X119499260Y-112777256D01*
X119327743Y-112605739D01*
X119327736Y-112605733D01*
X119135293Y-112458067D01*
X119135292Y-112458066D01*
X119135289Y-112458064D01*
X118925212Y-112336776D01*
X118886510Y-112320745D01*
X118701104Y-112243947D01*
X118466785Y-112181161D01*
X118226289Y-112149500D01*
X118226288Y-112149500D01*
X117983712Y-112149500D01*
X117983711Y-112149500D01*
X117743214Y-112181161D01*
X117508895Y-112243947D01*
X117284794Y-112336773D01*
X117284785Y-112336777D01*
X117102851Y-112441817D01*
X117079951Y-112455039D01*
X117074706Y-112458067D01*
X116882263Y-112605733D01*
X116882256Y-112605739D01*
X116710739Y-112777256D01*
X116710733Y-112777263D01*
X116563067Y-112969706D01*
X116441777Y-113179785D01*
X116441773Y-113179794D01*
X116348947Y-113403895D01*
X116286161Y-113638214D01*
X116254500Y-113878711D01*
X64345500Y-113878711D01*
X64313838Y-113638211D01*
X64251054Y-113403900D01*
X64158224Y-113179788D01*
X64036936Y-112969711D01*
X63889265Y-112777262D01*
X63889260Y-112777256D01*
X63717743Y-112605739D01*
X63717736Y-112605733D01*
X63525293Y-112458067D01*
X63525292Y-112458066D01*
X63525289Y-112458064D01*
X63315212Y-112336776D01*
X63276510Y-112320745D01*
X63091104Y-112243947D01*
X62856785Y-112181161D01*
X62616289Y-112149500D01*
X62616288Y-112149500D01*
X62373712Y-112149500D01*
X62373711Y-112149500D01*
X62133214Y-112181161D01*
X61898895Y-112243947D01*
X61674794Y-112336773D01*
X61674785Y-112336777D01*
X61492851Y-112441817D01*
X61469951Y-112455039D01*
X61464706Y-112458067D01*
X61272263Y-112605733D01*
X61272256Y-112605739D01*
X61100739Y-112777256D01*
X61100733Y-112777263D01*
X60953067Y-112969706D01*
X60831777Y-113179785D01*
X60831773Y-113179794D01*
X60738947Y-113403895D01*
X60676161Y-113638214D01*
X60644500Y-113878711D01*
X56350500Y-113878711D01*
X56350500Y-112455043D01*
X56350499Y-112455039D01*
X56335369Y-112320750D01*
X56335368Y-112320745D01*
X56275788Y-112150476D01*
X56179815Y-111997737D01*
X56052262Y-111870184D01*
X55899523Y-111774211D01*
X55729254Y-111714631D01*
X55729249Y-111714630D01*
X55594960Y-111699500D01*
X55594954Y-111699500D01*
X52505046Y-111699500D01*
X52505039Y-111699500D01*
X52370750Y-111714630D01*
X52370745Y-111714631D01*
X52200476Y-111774211D01*
X52047737Y-111870184D01*
X51920184Y-111997737D01*
X51824211Y-112150476D01*
X51764631Y-112320745D01*
X51764630Y-112320750D01*
X51749500Y-112455039D01*
X51749500Y-112575500D01*
X51729815Y-112642539D01*
X51677011Y-112688294D01*
X51625500Y-112699500D01*
X50694500Y-112699500D01*
X50627461Y-112679815D01*
X50581706Y-112627011D01*
X50570500Y-112575500D01*
X50570500Y-98338589D01*
X50590185Y-98271550D01*
X50594184Y-98265701D01*
X50606370Y-98248929D01*
X50718026Y-98029792D01*
X50794026Y-97795886D01*
X50832500Y-97552971D01*
X50832500Y-97307029D01*
X52787500Y-97307029D01*
X52787500Y-97552970D01*
X52825974Y-97795887D01*
X52901972Y-98029789D01*
X52901973Y-98029792D01*
X53013632Y-98248932D01*
X53158185Y-98447894D01*
X53158189Y-98447899D01*
X53332100Y-98621810D01*
X53332105Y-98621814D01*
X53481700Y-98730500D01*
X53531071Y-98766370D01*
X53674322Y-98839360D01*
X53750207Y-98878026D01*
X53750210Y-98878027D01*
X53867161Y-98916026D01*
X53984114Y-98954026D01*
X54227029Y-98992500D01*
X54227030Y-98992500D01*
X54472970Y-98992500D01*
X54472971Y-98992500D01*
X54715886Y-98954026D01*
X54949792Y-98878026D01*
X55168929Y-98766370D01*
X55185704Y-98754181D01*
X55251510Y-98730702D01*
X55258590Y-98730500D01*
X59672351Y-98730500D01*
X59672352Y-98730500D01*
X59874535Y-98698477D01*
X59971876Y-98666848D01*
X60069219Y-98635220D01*
X60172870Y-98582407D01*
X60251611Y-98542287D01*
X60417219Y-98421966D01*
X74502819Y-84336364D01*
X74564142Y-84302880D01*
X74633834Y-84307864D01*
X74689767Y-84349736D01*
X74714184Y-84415200D01*
X74714500Y-84424046D01*
X74714500Y-95617351D01*
X74746522Y-95819534D01*
X74809781Y-96014223D01*
X74850013Y-96093181D01*
X74850242Y-96093630D01*
X74902713Y-96196611D01*
X75023034Y-96362219D01*
X77152781Y-98491966D01*
X77318389Y-98612287D01*
X77363398Y-98635220D01*
X77500781Y-98705220D01*
X77500783Y-98705220D01*
X77500786Y-98705222D01*
X77500784Y-98705222D01*
X77578584Y-98730500D01*
X77578585Y-98730500D01*
X77695465Y-98768477D01*
X77897648Y-98800500D01*
X77897649Y-98800500D01*
X111602351Y-98800500D01*
X111602352Y-98800500D01*
X111804535Y-98768477D01*
X111921415Y-98730500D01*
X111921416Y-98730500D01*
X111999214Y-98705222D01*
X111999216Y-98705220D01*
X111999219Y-98705220D01*
X112136602Y-98635220D01*
X112181611Y-98612287D01*
X112347219Y-98491966D01*
X120002366Y-90836819D01*
X120063689Y-90803334D01*
X120090047Y-90800500D01*
X135102351Y-90800500D01*
X135102352Y-90800500D01*
X135304535Y-90768477D01*
X135401876Y-90736848D01*
X135499219Y-90705220D01*
X135634761Y-90636158D01*
X135681611Y-90612287D01*
X135847219Y-90491966D01*
X136840150Y-89499032D01*
X136840157Y-89499027D01*
X136847217Y-89491967D01*
X136847219Y-89491966D01*
X136991966Y-89347219D01*
X136991968Y-89347215D01*
X136991971Y-89347213D01*
X137064308Y-89247648D01*
X137112287Y-89181610D01*
X137181656Y-89045466D01*
X137205221Y-88999218D01*
X137268477Y-88804534D01*
X137290040Y-88668390D01*
X137300500Y-88602352D01*
X137300500Y-34897648D01*
X137268477Y-34695466D01*
X137268476Y-34695462D01*
X137268476Y-34695461D01*
X137214808Y-34530289D01*
X137214807Y-34530287D01*
X137205220Y-34500780D01*
X137113215Y-34320212D01*
X137112287Y-34318390D01*
X137102220Y-34304534D01*
X136991966Y-34152781D01*
X136847219Y-34008034D01*
X136847218Y-34008033D01*
X136844107Y-34004922D01*
X136844092Y-34004908D01*
X135847221Y-33008036D01*
X135847220Y-33008035D01*
X135847219Y-33008034D01*
X135681611Y-32887713D01*
X135590414Y-32841246D01*
X135590412Y-32841245D01*
X135499223Y-32794781D01*
X135445286Y-32777256D01*
X135401876Y-32763151D01*
X135378003Y-32755394D01*
X135304535Y-32731522D01*
X135129995Y-32703878D01*
X135102352Y-32699500D01*
X116102351Y-32699500D01*
X115897648Y-32699500D01*
X115830253Y-32710174D01*
X115695463Y-32731523D01*
X115598123Y-32763150D01*
X115598123Y-32763151D01*
X115554713Y-32777256D01*
X115500774Y-32794782D01*
X115409584Y-32841245D01*
X115409585Y-32841246D01*
X115318388Y-32887713D01*
X115152778Y-33008036D01*
X114468036Y-33692778D01*
X114347713Y-33858388D01*
X114301246Y-33949585D01*
X114301245Y-33949584D01*
X114254333Y-34041655D01*
X114253272Y-34045420D01*
X114191522Y-34235467D01*
X114191522Y-34235468D01*
X114180583Y-34304535D01*
X114180583Y-34304536D01*
X114159500Y-34437643D01*
X114159500Y-35837710D01*
X114139815Y-35904749D01*
X114101472Y-35942704D01*
X114057738Y-35970183D01*
X113930184Y-36097737D01*
X113834211Y-36250476D01*
X113774631Y-36420745D01*
X113774630Y-36420750D01*
X113759500Y-36555039D01*
X113759500Y-38444960D01*
X113774630Y-38579249D01*
X113774631Y-38579254D01*
X113834211Y-38749523D01*
X113930184Y-38902262D01*
X114057737Y-39029815D01*
X114057740Y-39029817D01*
X114101471Y-39057295D01*
X114147763Y-39109629D01*
X114159500Y-39162289D01*
X114159500Y-41337710D01*
X114139815Y-41404749D01*
X114101472Y-41442704D01*
X114057738Y-41470183D01*
X113930184Y-41597737D01*
X113834211Y-41750476D01*
X113774631Y-41920745D01*
X113774630Y-41920750D01*
X113759500Y-42055039D01*
X113759500Y-43944960D01*
X113774630Y-44079249D01*
X113774631Y-44079254D01*
X113834211Y-44249523D01*
X113930184Y-44402262D01*
X114057737Y-44529815D01*
X114057740Y-44529817D01*
X114101471Y-44557295D01*
X114147763Y-44609629D01*
X114159500Y-44662289D01*
X114159500Y-46987060D01*
X114139815Y-47054099D01*
X114123181Y-47074741D01*
X114100184Y-47097737D01*
X114004211Y-47250476D01*
X113944631Y-47420745D01*
X113944630Y-47420750D01*
X113929500Y-47555039D01*
X113929500Y-49444960D01*
X113944630Y-49579249D01*
X113944631Y-49579254D01*
X114004211Y-49749523D01*
X114100184Y-49902262D01*
X114227737Y-50029815D01*
X114227740Y-50029817D01*
X114271471Y-50057295D01*
X114317763Y-50109629D01*
X114329500Y-50162289D01*
X114329500Y-52337710D01*
X114309815Y-52404749D01*
X114271472Y-52442704D01*
X114227738Y-52470183D01*
X114100184Y-52597737D01*
X114004211Y-52750476D01*
X113944631Y-52920745D01*
X113944630Y-52920750D01*
X113929500Y-53055039D01*
X113929500Y-54944960D01*
X113944630Y-55079249D01*
X113944631Y-55079254D01*
X114004211Y-55249523D01*
X114079202Y-55368870D01*
X114100184Y-55402262D01*
X114227738Y-55529816D01*
X114380478Y-55625789D01*
X114510838Y-55671404D01*
X114550745Y-55685368D01*
X114550750Y-55685369D01*
X114641246Y-55695565D01*
X114685040Y-55700499D01*
X114685043Y-55700500D01*
X114685046Y-55700500D01*
X116574957Y-55700500D01*
X116574958Y-55700499D01*
X116642104Y-55692934D01*
X116709249Y-55685369D01*
X116709252Y-55685368D01*
X116709255Y-55685368D01*
X116879522Y-55625789D01*
X117032262Y-55529816D01*
X117106435Y-55455643D01*
X117167758Y-55422158D01*
X117237450Y-55427142D01*
X117256109Y-55435933D01*
X117416274Y-55528405D01*
X117622219Y-55613710D01*
X117837537Y-55671404D01*
X118058543Y-55700500D01*
X118058550Y-55700500D01*
X118281450Y-55700500D01*
X118281457Y-55700500D01*
X118502463Y-55671404D01*
X118717781Y-55613710D01*
X118923726Y-55528405D01*
X119116774Y-55416948D01*
X119293624Y-55281247D01*
X119451247Y-55123624D01*
X119470130Y-55099014D01*
X119526558Y-55057811D01*
X119568507Y-55050500D01*
X120075689Y-55050500D01*
X120142728Y-55070185D01*
X120163370Y-55086819D01*
X120297345Y-55220794D01*
X120297350Y-55220798D01*
X120380545Y-55281242D01*
X120501155Y-55368870D01*
X120632782Y-55435937D01*
X120725616Y-55483239D01*
X120725618Y-55483239D01*
X120725621Y-55483241D01*
X120965215Y-55561090D01*
X121214038Y-55600500D01*
X121214039Y-55600500D01*
X121465961Y-55600500D01*
X121465962Y-55600500D01*
X121714785Y-55561090D01*
X121954379Y-55483241D01*
X122178845Y-55368870D01*
X122382656Y-55220793D01*
X122560793Y-55042656D01*
X122708870Y-54838845D01*
X122823241Y-54614379D01*
X122901090Y-54374785D01*
X122940500Y-54125962D01*
X122940500Y-53874038D01*
X122901090Y-53625215D01*
X122823241Y-53385621D01*
X122823239Y-53385618D01*
X122823239Y-53385616D01*
X122781747Y-53304184D01*
X122708870Y-53161155D01*
X122689952Y-53135117D01*
X122560798Y-52957350D01*
X122560794Y-52957345D01*
X122382654Y-52779205D01*
X122382649Y-52779201D01*
X122178848Y-52631132D01*
X122178847Y-52631131D01*
X122178845Y-52631130D01*
X122108747Y-52595413D01*
X121954383Y-52516760D01*
X121714785Y-52438910D01*
X121671744Y-52432093D01*
X121465962Y-52399500D01*
X121214038Y-52399500D01*
X121089626Y-52419205D01*
X120965214Y-52438910D01*
X120725616Y-52516760D01*
X120501151Y-52631132D01*
X120297350Y-52779201D01*
X120297345Y-52779205D01*
X120163370Y-52913181D01*
X120102047Y-52946666D01*
X120075689Y-52949500D01*
X119568507Y-52949500D01*
X119501468Y-52929815D01*
X119470130Y-52900985D01*
X119451246Y-52876375D01*
X119451242Y-52876370D01*
X119293629Y-52718757D01*
X119293622Y-52718751D01*
X119116782Y-52583058D01*
X119116780Y-52583057D01*
X119116774Y-52583052D01*
X118923726Y-52471595D01*
X118923722Y-52471593D01*
X118717790Y-52386293D01*
X118717783Y-52386291D01*
X118717781Y-52386290D01*
X118502463Y-52328596D01*
X118502457Y-52328595D01*
X118502452Y-52328594D01*
X118281466Y-52299501D01*
X118281463Y-52299500D01*
X118281457Y-52299500D01*
X118058543Y-52299500D01*
X118058537Y-52299500D01*
X118058533Y-52299501D01*
X117837547Y-52328594D01*
X117837540Y-52328595D01*
X117837537Y-52328596D01*
X117669467Y-52373630D01*
X117622219Y-52386290D01*
X117622209Y-52386293D01*
X117416277Y-52471593D01*
X117416266Y-52471598D01*
X117256115Y-52564062D01*
X117233689Y-52569502D01*
X117212779Y-52579262D01*
X117200378Y-52577584D01*
X117188215Y-52580535D01*
X117166408Y-52572987D01*
X117143540Y-52569893D01*
X117129448Y-52560194D01*
X117122188Y-52557682D01*
X117113692Y-52551058D01*
X117109932Y-52547854D01*
X117032262Y-52470184D01*
X116980917Y-52437921D01*
X116974077Y-52432093D01*
X116959670Y-52410079D01*
X116942237Y-52390370D01*
X116939894Y-52379860D01*
X116935817Y-52373630D01*
X116935712Y-52361098D01*
X116930500Y-52337710D01*
X116930500Y-50162289D01*
X116950185Y-50095250D01*
X116988529Y-50057295D01*
X117032262Y-50029816D01*
X117106435Y-49955643D01*
X117167758Y-49922158D01*
X117237450Y-49927142D01*
X117256109Y-49935933D01*
X117416274Y-50028405D01*
X117495183Y-50061090D01*
X117612366Y-50109629D01*
X117622219Y-50113710D01*
X117837537Y-50171404D01*
X118058543Y-50200500D01*
X118058550Y-50200500D01*
X118281450Y-50200500D01*
X118281457Y-50200500D01*
X118502463Y-50171404D01*
X118717781Y-50113710D01*
X118923726Y-50028405D01*
X119116774Y-49916948D01*
X119293624Y-49781247D01*
X119451247Y-49623624D01*
X119470130Y-49599014D01*
X119526558Y-49557811D01*
X119568507Y-49550500D01*
X120075689Y-49550500D01*
X120142728Y-49570185D01*
X120163370Y-49586819D01*
X120297345Y-49720794D01*
X120297350Y-49720798D01*
X120380545Y-49781242D01*
X120501155Y-49868870D01*
X120632782Y-49935937D01*
X120725616Y-49983239D01*
X120725618Y-49983239D01*
X120725621Y-49983241D01*
X120965215Y-50061090D01*
X121214038Y-50100500D01*
X121214039Y-50100500D01*
X121465961Y-50100500D01*
X121465962Y-50100500D01*
X121714785Y-50061090D01*
X121954379Y-49983241D01*
X122178845Y-49868870D01*
X122382656Y-49720793D01*
X122560793Y-49542656D01*
X122708870Y-49338845D01*
X122823241Y-49114379D01*
X122901090Y-48874785D01*
X122940500Y-48625962D01*
X122940500Y-48374038D01*
X122901090Y-48125215D01*
X122823241Y-47885621D01*
X122823239Y-47885618D01*
X122823239Y-47885616D01*
X122781747Y-47804184D01*
X122708870Y-47661155D01*
X122689952Y-47635117D01*
X122560798Y-47457350D01*
X122560794Y-47457345D01*
X122382654Y-47279205D01*
X122382649Y-47279201D01*
X122178848Y-47131132D01*
X122178847Y-47131131D01*
X122178845Y-47131130D01*
X122108747Y-47095413D01*
X121954383Y-47016760D01*
X121714785Y-46938910D01*
X121465962Y-46899500D01*
X121214038Y-46899500D01*
X121089626Y-46919205D01*
X120965214Y-46938910D01*
X120725616Y-47016760D01*
X120501151Y-47131132D01*
X120297350Y-47279201D01*
X120297345Y-47279205D01*
X120163370Y-47413181D01*
X120102047Y-47446666D01*
X120075689Y-47449500D01*
X119568507Y-47449500D01*
X119501468Y-47429815D01*
X119470130Y-47400985D01*
X119451246Y-47376375D01*
X119451242Y-47376370D01*
X119293629Y-47218757D01*
X119293622Y-47218751D01*
X119116782Y-47083058D01*
X119116780Y-47083057D01*
X119116774Y-47083052D01*
X118923726Y-46971595D01*
X118923722Y-46971593D01*
X118717790Y-46886293D01*
X118717783Y-46886291D01*
X118717781Y-46886290D01*
X118502463Y-46828596D01*
X118502457Y-46828595D01*
X118502452Y-46828594D01*
X118281466Y-46799501D01*
X118281463Y-46799500D01*
X118281457Y-46799500D01*
X118058543Y-46799500D01*
X118058537Y-46799500D01*
X118058533Y-46799501D01*
X117837547Y-46828594D01*
X117837540Y-46828595D01*
X117837537Y-46828596D01*
X117667299Y-46874211D01*
X117622219Y-46886290D01*
X117622209Y-46886293D01*
X117416277Y-46971593D01*
X117416266Y-46971598D01*
X117256115Y-47064062D01*
X117188215Y-47080535D01*
X117122188Y-47057682D01*
X117106434Y-47044356D01*
X117032262Y-46970184D01*
X116879524Y-46874212D01*
X116879525Y-46874212D01*
X116843543Y-46861621D01*
X116786768Y-46820898D01*
X116761022Y-46755944D01*
X116760500Y-46744580D01*
X116760500Y-44662289D01*
X116780185Y-44595250D01*
X116804077Y-44567906D01*
X116810915Y-44562078D01*
X116862262Y-44529816D01*
X116939934Y-44452143D01*
X116943693Y-44448941D01*
X116971261Y-44436626D01*
X116997758Y-44422158D01*
X117002837Y-44422521D01*
X117007488Y-44420444D01*
X117037333Y-44424988D01*
X117067450Y-44427142D01*
X117075075Y-44430734D01*
X117076561Y-44430961D01*
X117077716Y-44431979D01*
X117086109Y-44435933D01*
X117246274Y-44528405D01*
X117325183Y-44561090D01*
X117442366Y-44609629D01*
X117452219Y-44613710D01*
X117667537Y-44671404D01*
X117888543Y-44700500D01*
X117888550Y-44700500D01*
X118111450Y-44700500D01*
X118111457Y-44700500D01*
X118332463Y-44671404D01*
X118547781Y-44613710D01*
X118753726Y-44528405D01*
X118946774Y-44416948D01*
X119123624Y-44281247D01*
X119281247Y-44123624D01*
X119300130Y-44099014D01*
X119356558Y-44057811D01*
X119398507Y-44050500D01*
X120075689Y-44050500D01*
X120142728Y-44070185D01*
X120163370Y-44086819D01*
X120297345Y-44220794D01*
X120297350Y-44220798D01*
X120380545Y-44281242D01*
X120501155Y-44368870D01*
X120622570Y-44430734D01*
X120725616Y-44483239D01*
X120725618Y-44483239D01*
X120725621Y-44483241D01*
X120965215Y-44561090D01*
X121214038Y-44600500D01*
X121214039Y-44600500D01*
X121465961Y-44600500D01*
X121465962Y-44600500D01*
X121714785Y-44561090D01*
X121954379Y-44483241D01*
X122178845Y-44368870D01*
X122382656Y-44220793D01*
X122560793Y-44042656D01*
X122708870Y-43838845D01*
X122823241Y-43614379D01*
X122901090Y-43374785D01*
X122940500Y-43125962D01*
X122940500Y-42874038D01*
X122901090Y-42625215D01*
X122823241Y-42385621D01*
X122823239Y-42385618D01*
X122823239Y-42385616D01*
X122781747Y-42304184D01*
X122708870Y-42161155D01*
X122689952Y-42135117D01*
X122560798Y-41957350D01*
X122560794Y-41957345D01*
X122382654Y-41779205D01*
X122382649Y-41779201D01*
X122178848Y-41631132D01*
X122178847Y-41631131D01*
X122178845Y-41631130D01*
X122108747Y-41595413D01*
X121954383Y-41516760D01*
X121714785Y-41438910D01*
X121671744Y-41432093D01*
X121465962Y-41399500D01*
X121214038Y-41399500D01*
X121089626Y-41419205D01*
X120965214Y-41438910D01*
X120725616Y-41516760D01*
X120501151Y-41631132D01*
X120297350Y-41779201D01*
X120297345Y-41779205D01*
X120163370Y-41913181D01*
X120102047Y-41946666D01*
X120075689Y-41949500D01*
X119398507Y-41949500D01*
X119331468Y-41929815D01*
X119300130Y-41900985D01*
X119281246Y-41876375D01*
X119281242Y-41876370D01*
X119123629Y-41718757D01*
X119123622Y-41718751D01*
X118946782Y-41583058D01*
X118946780Y-41583057D01*
X118946774Y-41583052D01*
X118753726Y-41471595D01*
X118753722Y-41471593D01*
X118547790Y-41386293D01*
X118547783Y-41386291D01*
X118547781Y-41386290D01*
X118332463Y-41328596D01*
X118332457Y-41328595D01*
X118332452Y-41328594D01*
X118111466Y-41299501D01*
X118111463Y-41299500D01*
X118111457Y-41299500D01*
X117888543Y-41299500D01*
X117888537Y-41299500D01*
X117888533Y-41299501D01*
X117667547Y-41328594D01*
X117667540Y-41328595D01*
X117667537Y-41328596D01*
X117499467Y-41373630D01*
X117452219Y-41386290D01*
X117452209Y-41386293D01*
X117246277Y-41471593D01*
X117246266Y-41471598D01*
X117086115Y-41564062D01*
X117063689Y-41569502D01*
X117042779Y-41579262D01*
X117030378Y-41577584D01*
X117018215Y-41580535D01*
X116996408Y-41572987D01*
X116973540Y-41569893D01*
X116959448Y-41560194D01*
X116952188Y-41557682D01*
X116943692Y-41551058D01*
X116939932Y-41547854D01*
X116862262Y-41470184D01*
X116810917Y-41437921D01*
X116804077Y-41432093D01*
X116789670Y-41410079D01*
X116772237Y-41390370D01*
X116769894Y-41379860D01*
X116765817Y-41373630D01*
X116765712Y-41361098D01*
X116760500Y-41337710D01*
X116760500Y-39162289D01*
X116780185Y-39095250D01*
X116818529Y-39057295D01*
X116862262Y-39029816D01*
X116936435Y-38955643D01*
X116997758Y-38922158D01*
X117067450Y-38927142D01*
X117086109Y-38935933D01*
X117246274Y-39028405D01*
X117325183Y-39061090D01*
X117442366Y-39109629D01*
X117452219Y-39113710D01*
X117667537Y-39171404D01*
X117888543Y-39200500D01*
X117888550Y-39200500D01*
X118111450Y-39200500D01*
X118111457Y-39200500D01*
X118332463Y-39171404D01*
X118547781Y-39113710D01*
X118753726Y-39028405D01*
X118946774Y-38916948D01*
X119123624Y-38781247D01*
X119281247Y-38623624D01*
X119300130Y-38599014D01*
X119356558Y-38557811D01*
X119398507Y-38550500D01*
X120075689Y-38550500D01*
X120142728Y-38570185D01*
X120163370Y-38586819D01*
X120297345Y-38720794D01*
X120297350Y-38720798D01*
X120380545Y-38781242D01*
X120501155Y-38868870D01*
X120632782Y-38935937D01*
X120725616Y-38983239D01*
X120725618Y-38983239D01*
X120725621Y-38983241D01*
X120965215Y-39061090D01*
X121214038Y-39100500D01*
X121214039Y-39100500D01*
X121465961Y-39100500D01*
X121465962Y-39100500D01*
X121714785Y-39061090D01*
X121954379Y-38983241D01*
X122178845Y-38868870D01*
X122382656Y-38720793D01*
X122560793Y-38542656D01*
X122708870Y-38338845D01*
X122823241Y-38114379D01*
X122901090Y-37874785D01*
X122940500Y-37625962D01*
X122940500Y-37374038D01*
X122901090Y-37125215D01*
X122823241Y-36885621D01*
X122823239Y-36885618D01*
X122823239Y-36885616D01*
X122781747Y-36804184D01*
X122708870Y-36661155D01*
X122689952Y-36635117D01*
X122560798Y-36457350D01*
X122560794Y-36457345D01*
X122382654Y-36279205D01*
X122382649Y-36279201D01*
X122178848Y-36131132D01*
X122178847Y-36131131D01*
X122178845Y-36131130D01*
X122108747Y-36095413D01*
X121954383Y-36016760D01*
X121714785Y-35938910D01*
X121671744Y-35932093D01*
X121465962Y-35899500D01*
X121214038Y-35899500D01*
X121089626Y-35919205D01*
X120965214Y-35938910D01*
X120725616Y-36016760D01*
X120501151Y-36131132D01*
X120297350Y-36279201D01*
X120297345Y-36279205D01*
X120163370Y-36413181D01*
X120102047Y-36446666D01*
X120075689Y-36449500D01*
X119398507Y-36449500D01*
X119331468Y-36429815D01*
X119300130Y-36400985D01*
X119281246Y-36376375D01*
X119281242Y-36376370D01*
X119123629Y-36218757D01*
X119123622Y-36218751D01*
X118946782Y-36083058D01*
X118946780Y-36083057D01*
X118946774Y-36083052D01*
X118753726Y-35971595D01*
X118753722Y-35971593D01*
X118547790Y-35886293D01*
X118547783Y-35886291D01*
X118547781Y-35886290D01*
X118332463Y-35828596D01*
X118332457Y-35828595D01*
X118332452Y-35828594D01*
X118111466Y-35799501D01*
X118111463Y-35799500D01*
X118111457Y-35799500D01*
X117888543Y-35799500D01*
X117888537Y-35799500D01*
X117888533Y-35799501D01*
X117667547Y-35828594D01*
X117667540Y-35828595D01*
X117667537Y-35828596D01*
X117499467Y-35873630D01*
X117452219Y-35886290D01*
X117452209Y-35886293D01*
X117246277Y-35971593D01*
X117246266Y-35971598D01*
X117086115Y-36064062D01*
X117063689Y-36069502D01*
X117042779Y-36079262D01*
X117030378Y-36077584D01*
X117018215Y-36080535D01*
X116996408Y-36072987D01*
X116973540Y-36069893D01*
X116959448Y-36060194D01*
X116952188Y-36057682D01*
X116943692Y-36051058D01*
X116939932Y-36047854D01*
X116862262Y-35970184D01*
X116810917Y-35937921D01*
X116804077Y-35932093D01*
X116789670Y-35910079D01*
X116772237Y-35890370D01*
X116769894Y-35879860D01*
X116765817Y-35873630D01*
X116765712Y-35861098D01*
X116760500Y-35837710D01*
X116760500Y-35424500D01*
X116780185Y-35357461D01*
X116832989Y-35311706D01*
X116884500Y-35300500D01*
X134409953Y-35300500D01*
X134476992Y-35320185D01*
X134497629Y-35336814D01*
X134663182Y-35502366D01*
X134696666Y-35563688D01*
X134699500Y-35590046D01*
X134699500Y-87909953D01*
X134690855Y-87939393D01*
X134684332Y-87969380D01*
X134680577Y-87974395D01*
X134679815Y-87976992D01*
X134663181Y-87997634D01*
X134497634Y-88163181D01*
X134436311Y-88196666D01*
X134409953Y-88199500D01*
X120924500Y-88199500D01*
X120857461Y-88179815D01*
X120811706Y-88127011D01*
X120800500Y-88075500D01*
X120800500Y-81424500D01*
X120820185Y-81357461D01*
X120872989Y-81311706D01*
X120924500Y-81300500D01*
X128205920Y-81300500D01*
X128272959Y-81320185D01*
X128318714Y-81372989D01*
X128324581Y-81388505D01*
X128374770Y-81553958D01*
X128472313Y-81736448D01*
X128472315Y-81736450D01*
X128603589Y-81896410D01*
X128734864Y-82004143D01*
X128751083Y-82017454D01*
X128763549Y-82027684D01*
X128763551Y-82027686D01*
X128946041Y-82125229D01*
X128946043Y-82125229D01*
X128946046Y-82125231D01*
X129144067Y-82185300D01*
X129144066Y-82185300D01*
X129154970Y-82186373D01*
X129298393Y-82200500D01*
X131701606Y-82200499D01*
X131855933Y-82185300D01*
X132053954Y-82125231D01*
X132236450Y-82027685D01*
X132396410Y-81896410D01*
X132527685Y-81736450D01*
X132625231Y-81553954D01*
X132685300Y-81355933D01*
X132700500Y-81201607D01*
X132700499Y-78798394D01*
X132685300Y-78644067D01*
X132625231Y-78446046D01*
X132625229Y-78446043D01*
X132625229Y-78446041D01*
X132527686Y-78263551D01*
X132527684Y-78263549D01*
X132396410Y-78103589D01*
X132236450Y-77972315D01*
X132236448Y-77972313D01*
X132053958Y-77874770D01*
X131954943Y-77844734D01*
X131855933Y-77814700D01*
X131855931Y-77814699D01*
X131855933Y-77814699D01*
X131745220Y-77803795D01*
X131701607Y-77799500D01*
X131701603Y-77799500D01*
X129298397Y-77799500D01*
X129144068Y-77814699D01*
X128946041Y-77874770D01*
X128763551Y-77972313D01*
X128763549Y-77972315D01*
X128603589Y-78103589D01*
X128472315Y-78263549D01*
X128472313Y-78263551D01*
X128374770Y-78446041D01*
X128324581Y-78611495D01*
X128286283Y-78669934D01*
X128222471Y-78698390D01*
X128205920Y-78699500D01*
X119602352Y-78699500D01*
X119397648Y-78699500D01*
X119373329Y-78703351D01*
X119195465Y-78731522D01*
X119000776Y-78794781D01*
X118818386Y-78887715D01*
X118652786Y-79008028D01*
X118508028Y-79152786D01*
X118387715Y-79318386D01*
X118294781Y-79500776D01*
X118231522Y-79695465D01*
X118199500Y-79897648D01*
X118199500Y-88909953D01*
X118179815Y-88976992D01*
X118163181Y-88997634D01*
X110997634Y-96163181D01*
X110936311Y-96196666D01*
X110909953Y-96199500D01*
X78590047Y-96199500D01*
X78523008Y-96179815D01*
X78502366Y-96163181D01*
X77351819Y-95012634D01*
X77318334Y-94951311D01*
X77315500Y-94924953D01*
X77315500Y-88860258D01*
X78519500Y-88860258D01*
X78519500Y-89089741D01*
X78531596Y-89181613D01*
X78549452Y-89317238D01*
X78596270Y-89491966D01*
X78608842Y-89538887D01*
X78696650Y-89750876D01*
X78696657Y-89750890D01*
X78811392Y-89949617D01*
X78951081Y-90131661D01*
X78951089Y-90131670D01*
X79113330Y-90293911D01*
X79113338Y-90293918D01*
X79295382Y-90433607D01*
X79295385Y-90433608D01*
X79295388Y-90433611D01*
X79494112Y-90548344D01*
X79494117Y-90548346D01*
X79494123Y-90548349D01*
X79585480Y-90586190D01*
X79706113Y-90636158D01*
X79927762Y-90695548D01*
X80155266Y-90725500D01*
X80155273Y-90725500D01*
X80384727Y-90725500D01*
X80384734Y-90725500D01*
X80612238Y-90695548D01*
X80833887Y-90636158D01*
X81045888Y-90548344D01*
X81244612Y-90433611D01*
X81426661Y-90293919D01*
X81426665Y-90293914D01*
X81426670Y-90293911D01*
X81588911Y-90131670D01*
X81588914Y-90131665D01*
X81588919Y-90131661D01*
X81728611Y-89949612D01*
X81843344Y-89750888D01*
X81931158Y-89538887D01*
X81990548Y-89317238D01*
X82020500Y-89089734D01*
X82020500Y-88860266D01*
X82020499Y-88860258D01*
X103029500Y-88860258D01*
X103029500Y-89089741D01*
X103041596Y-89181613D01*
X103059452Y-89317238D01*
X103106270Y-89491966D01*
X103118842Y-89538887D01*
X103206650Y-89750876D01*
X103206657Y-89750890D01*
X103321392Y-89949617D01*
X103461081Y-90131661D01*
X103461089Y-90131670D01*
X103623330Y-90293911D01*
X103623338Y-90293918D01*
X103805382Y-90433607D01*
X103805385Y-90433608D01*
X103805388Y-90433611D01*
X104004112Y-90548344D01*
X104004117Y-90548346D01*
X104004123Y-90548349D01*
X104095480Y-90586190D01*
X104216113Y-90636158D01*
X104437762Y-90695548D01*
X104665266Y-90725500D01*
X104665273Y-90725500D01*
X104894727Y-90725500D01*
X104894734Y-90725500D01*
X105122238Y-90695548D01*
X105343887Y-90636158D01*
X105555888Y-90548344D01*
X105754612Y-90433611D01*
X105936661Y-90293919D01*
X105936665Y-90293914D01*
X105936670Y-90293911D01*
X106098911Y-90131670D01*
X106098914Y-90131665D01*
X106098919Y-90131661D01*
X106238611Y-89949612D01*
X106353344Y-89750888D01*
X106441158Y-89538887D01*
X106500548Y-89317238D01*
X106530500Y-89089734D01*
X106530500Y-88860266D01*
X106500548Y-88632762D01*
X106441158Y-88411113D01*
X106353344Y-88199112D01*
X106238611Y-88000388D01*
X106238608Y-88000385D01*
X106238607Y-88000382D01*
X106098918Y-87818338D01*
X106098911Y-87818330D01*
X105936670Y-87656089D01*
X105936661Y-87656081D01*
X105754617Y-87516392D01*
X105555890Y-87401657D01*
X105555876Y-87401650D01*
X105343887Y-87313842D01*
X105122238Y-87254452D01*
X105084215Y-87249446D01*
X104894741Y-87224500D01*
X104894734Y-87224500D01*
X104665266Y-87224500D01*
X104665258Y-87224500D01*
X104448715Y-87253009D01*
X104437762Y-87254452D01*
X104344076Y-87279554D01*
X104216112Y-87313842D01*
X104004123Y-87401650D01*
X104004109Y-87401657D01*
X103805382Y-87516392D01*
X103623338Y-87656081D01*
X103461081Y-87818338D01*
X103321392Y-88000382D01*
X103206657Y-88199109D01*
X103206650Y-88199123D01*
X103118842Y-88411112D01*
X103059453Y-88632759D01*
X103059451Y-88632770D01*
X103029500Y-88860258D01*
X82020499Y-88860258D01*
X81990548Y-88632762D01*
X81931158Y-88411113D01*
X81843344Y-88199112D01*
X81728611Y-88000388D01*
X81728608Y-88000385D01*
X81728607Y-88000382D01*
X81588918Y-87818338D01*
X81588911Y-87818330D01*
X81426670Y-87656089D01*
X81426661Y-87656081D01*
X81244617Y-87516392D01*
X81045890Y-87401657D01*
X81045876Y-87401650D01*
X80833887Y-87313842D01*
X80612238Y-87254452D01*
X80574215Y-87249446D01*
X80384741Y-87224500D01*
X80384734Y-87224500D01*
X80155266Y-87224500D01*
X80155258Y-87224500D01*
X79938715Y-87253009D01*
X79927762Y-87254452D01*
X79834076Y-87279554D01*
X79706112Y-87313842D01*
X79494123Y-87401650D01*
X79494109Y-87401657D01*
X79295382Y-87516392D01*
X79113338Y-87656081D01*
X78951081Y-87818338D01*
X78811392Y-88000382D01*
X78696657Y-88199109D01*
X78696650Y-88199123D01*
X78608842Y-88411112D01*
X78549453Y-88632759D01*
X78549451Y-88632770D01*
X78519500Y-88860258D01*
X77315500Y-88860258D01*
X77315500Y-82439500D01*
X77335185Y-82372461D01*
X77387989Y-82326706D01*
X77439500Y-82315500D01*
X78502846Y-82315500D01*
X78569885Y-82335185D01*
X78590527Y-82351819D01*
X78610295Y-82371587D01*
X78610302Y-82371593D01*
X78720306Y-82456001D01*
X78797550Y-82515273D01*
X78928918Y-82591118D01*
X79001943Y-82633280D01*
X79001948Y-82633282D01*
X79001951Y-82633284D01*
X79220007Y-82723606D01*
X79447986Y-82784693D01*
X79681989Y-82815500D01*
X79681996Y-82815500D01*
X79918004Y-82815500D01*
X79918011Y-82815500D01*
X80152014Y-82784693D01*
X80379993Y-82723606D01*
X80598049Y-82633284D01*
X80802450Y-82515273D01*
X80989699Y-82371592D01*
X81156592Y-82204699D01*
X81300273Y-82017450D01*
X81418284Y-81813049D01*
X81508606Y-81594993D01*
X81569693Y-81367014D01*
X81600500Y-81133011D01*
X81600500Y-80896989D01*
X81569693Y-80662986D01*
X81508606Y-80435007D01*
X81418284Y-80216951D01*
X81418282Y-80216948D01*
X81418280Y-80216943D01*
X81361958Y-80119392D01*
X81300273Y-80012550D01*
X81267653Y-79970039D01*
X103399500Y-79970039D01*
X103399500Y-82059960D01*
X103414630Y-82194249D01*
X103414631Y-82194254D01*
X103474211Y-82364523D01*
X103479199Y-82372461D01*
X103570184Y-82517262D01*
X103697738Y-82644816D01*
X103850478Y-82740789D01*
X104020745Y-82800368D01*
X104020750Y-82800369D01*
X104111246Y-82810565D01*
X104155040Y-82815499D01*
X104155043Y-82815500D01*
X104155046Y-82815500D01*
X106244957Y-82815500D01*
X106244958Y-82815499D01*
X106312104Y-82807934D01*
X106379249Y-82800369D01*
X106379252Y-82800368D01*
X106379255Y-82800368D01*
X106549522Y-82740789D01*
X106702262Y-82644816D01*
X106829816Y-82517262D01*
X106925789Y-82364522D01*
X106985368Y-82194255D01*
X107000500Y-82059954D01*
X107000500Y-79970046D01*
X106991224Y-79887716D01*
X106985369Y-79835750D01*
X106985368Y-79835745D01*
X106948899Y-79731522D01*
X106925789Y-79665478D01*
X106921345Y-79658406D01*
X106886582Y-79603080D01*
X106829816Y-79512738D01*
X106702262Y-79385184D01*
X106549523Y-79289211D01*
X106379254Y-79229631D01*
X106379249Y-79229630D01*
X106244960Y-79214500D01*
X106244954Y-79214500D01*
X104155046Y-79214500D01*
X104155039Y-79214500D01*
X104020750Y-79229630D01*
X104020745Y-79229631D01*
X103850476Y-79289211D01*
X103697737Y-79385184D01*
X103570184Y-79512737D01*
X103474211Y-79665476D01*
X103414631Y-79835745D01*
X103414630Y-79835750D01*
X103399500Y-79970039D01*
X81267653Y-79970039D01*
X81204483Y-79887714D01*
X81156593Y-79825302D01*
X81156587Y-79825295D01*
X80989704Y-79658412D01*
X80989697Y-79658406D01*
X80802454Y-79514730D01*
X80802453Y-79514729D01*
X80802450Y-79514727D01*
X80720957Y-79467677D01*
X80598056Y-79396719D01*
X80598045Y-79396714D01*
X80379993Y-79306394D01*
X80152010Y-79245306D01*
X79918020Y-79214501D01*
X79918017Y-79214500D01*
X79918011Y-79214500D01*
X79681989Y-79214500D01*
X79681983Y-79214500D01*
X79681979Y-79214501D01*
X79447989Y-79245306D01*
X79220006Y-79306394D01*
X79001954Y-79396714D01*
X79001943Y-79396719D01*
X78797545Y-79514730D01*
X78610302Y-79658406D01*
X78610295Y-79658412D01*
X78590527Y-79678181D01*
X78529204Y-79711666D01*
X78502846Y-79714500D01*
X76206814Y-79714500D01*
X76187416Y-79712973D01*
X76179164Y-79711666D01*
X76102352Y-79699500D01*
X75897648Y-79699500D01*
X75850779Y-79706923D01*
X75695468Y-79731522D01*
X75500779Y-79794781D01*
X75318387Y-79887714D01*
X75318384Y-79887716D01*
X75152778Y-80008036D01*
X59067634Y-96093181D01*
X59006311Y-96126666D01*
X58979953Y-96129500D01*
X55258590Y-96129500D01*
X55191551Y-96109815D01*
X55185704Y-96105818D01*
X55168929Y-96093630D01*
X54949792Y-95981973D01*
X54949789Y-95981972D01*
X54715887Y-95905974D01*
X54594428Y-95886737D01*
X54472971Y-95867500D01*
X54227029Y-95867500D01*
X54146057Y-95880324D01*
X53984112Y-95905974D01*
X53750210Y-95981972D01*
X53750207Y-95981973D01*
X53531067Y-96093632D01*
X53332105Y-96238185D01*
X53332100Y-96238189D01*
X53158189Y-96412100D01*
X53158185Y-96412105D01*
X53013632Y-96611067D01*
X52901973Y-96830207D01*
X52901972Y-96830210D01*
X52825974Y-97064112D01*
X52787500Y-97307029D01*
X50832500Y-97307029D01*
X50794026Y-97064114D01*
X50718026Y-96830208D01*
X50718026Y-96830207D01*
X50679360Y-96754322D01*
X50606370Y-96611071D01*
X50570499Y-96561699D01*
X50461814Y-96412105D01*
X50461810Y-96412100D01*
X50287899Y-96238189D01*
X50287894Y-96238185D01*
X50088932Y-96093632D01*
X50088931Y-96093631D01*
X50088929Y-96093630D01*
X50018722Y-96057858D01*
X49869792Y-95981973D01*
X49869789Y-95981972D01*
X49635887Y-95905974D01*
X49514428Y-95886737D01*
X49392971Y-95867500D01*
X49147029Y-95867500D01*
X49066057Y-95880324D01*
X48904112Y-95905974D01*
X48670210Y-95981972D01*
X48670207Y-95981973D01*
X48451067Y-96093632D01*
X48252105Y-96238185D01*
X48252100Y-96238189D01*
X48078189Y-96412100D01*
X48078185Y-96412105D01*
X47933632Y-96611067D01*
X47821973Y-96830207D01*
X47821972Y-96830210D01*
X47745974Y-97064112D01*
X47707500Y-97307029D01*
X43212500Y-97307029D01*
X43174026Y-97064114D01*
X43098026Y-96830208D01*
X43098026Y-96830207D01*
X43042198Y-96720639D01*
X42986370Y-96611071D01*
X42974180Y-96594293D01*
X42950702Y-96528487D01*
X42950500Y-96521410D01*
X42950500Y-89940047D01*
X42970185Y-89873008D01*
X42986819Y-89852366D01*
X51483254Y-81355931D01*
X59991966Y-72847219D01*
X60112287Y-72681611D01*
X60183795Y-72541267D01*
X60205220Y-72499219D01*
X60268477Y-72304534D01*
X60288121Y-72180512D01*
X60296913Y-72125000D01*
X60300500Y-72102356D01*
X60300500Y-64897648D01*
X60268477Y-64695465D01*
X60231636Y-64582080D01*
X60205220Y-64500781D01*
X60205218Y-64500778D01*
X60205218Y-64500776D01*
X60126976Y-64347219D01*
X60126976Y-64347218D01*
X60112289Y-64318393D01*
X60112286Y-64318387D01*
X59991968Y-64152784D01*
X59991963Y-64152778D01*
X58347221Y-62508036D01*
X58347219Y-62508034D01*
X58181611Y-62387713D01*
X58090414Y-62341246D01*
X57999223Y-62294781D01*
X57952515Y-62279604D01*
X57901876Y-62263151D01*
X57878003Y-62255394D01*
X57804535Y-62231522D01*
X57609966Y-62200706D01*
X57602352Y-62199500D01*
X57602351Y-62199500D01*
X57174500Y-62199500D01*
X57107461Y-62179815D01*
X57061706Y-62127011D01*
X57050500Y-62075500D01*
X57050500Y-61705043D01*
X57050499Y-61705039D01*
X57049644Y-61697454D01*
X57040507Y-61616355D01*
X57035369Y-61570750D01*
X57035368Y-61570745D01*
X57014158Y-61510130D01*
X56975789Y-61400478D01*
X56879816Y-61247738D01*
X56752262Y-61120184D01*
X56635813Y-61047014D01*
X56599523Y-61024211D01*
X56429254Y-60964631D01*
X56429249Y-60964630D01*
X56294960Y-60949500D01*
X56294954Y-60949500D01*
X52705046Y-60949500D01*
X52705039Y-60949500D01*
X52570750Y-60964630D01*
X52570745Y-60964631D01*
X52400476Y-61024211D01*
X52247737Y-61120184D01*
X52120184Y-61247737D01*
X52024211Y-61400476D01*
X51964631Y-61570745D01*
X51964630Y-61570750D01*
X51949500Y-61705039D01*
X51949500Y-65294960D01*
X51964630Y-65429249D01*
X51964631Y-65429254D01*
X52024211Y-65599523D01*
X52120184Y-65752262D01*
X52247738Y-65879816D01*
X52400478Y-65975789D01*
X52570745Y-66035368D01*
X52570750Y-66035369D01*
X52661246Y-66045565D01*
X52705040Y-66050499D01*
X52705043Y-66050500D01*
X52705046Y-66050500D01*
X56294957Y-66050500D01*
X56294958Y-66050499D01*
X56362104Y-66042934D01*
X56429249Y-66035369D01*
X56429252Y-66035368D01*
X56429255Y-66035368D01*
X56599522Y-65975789D01*
X56752262Y-65879816D01*
X56879816Y-65752262D01*
X56975789Y-65599522D01*
X57035368Y-65429255D01*
X57036075Y-65422986D01*
X57050499Y-65294960D01*
X57050500Y-65294956D01*
X57050500Y-65189047D01*
X57070185Y-65122008D01*
X57122989Y-65076253D01*
X57192147Y-65066309D01*
X57255703Y-65095334D01*
X57262181Y-65101366D01*
X57663181Y-65502366D01*
X57696666Y-65563689D01*
X57699500Y-65590047D01*
X57699500Y-71409953D01*
X57679815Y-71476992D01*
X57663181Y-71497634D01*
X40658036Y-88502778D01*
X40537713Y-88668388D01*
X40491246Y-88759585D01*
X40491245Y-88759584D01*
X40444333Y-88851655D01*
X40443272Y-88855420D01*
X40408865Y-88961315D01*
X40381523Y-89045465D01*
X40370741Y-89113537D01*
X40359960Y-89181609D01*
X40359960Y-89181610D01*
X40349500Y-89247649D01*
X40349500Y-96521410D01*
X40329815Y-96588449D01*
X40325819Y-96594294D01*
X40313630Y-96611070D01*
X40313629Y-96611072D01*
X40201973Y-96830207D01*
X40201972Y-96830210D01*
X40125974Y-97064112D01*
X40087500Y-97307029D01*
X39500500Y-97307029D01*
X39500500Y-45336995D01*
X77999500Y-45336995D01*
X77999500Y-45573004D01*
X77999501Y-45573020D01*
X78030306Y-45807010D01*
X78091394Y-46034993D01*
X78181714Y-46253045D01*
X78181719Y-46253056D01*
X78252677Y-46375957D01*
X78299727Y-46457450D01*
X78299729Y-46457453D01*
X78299730Y-46457454D01*
X78445879Y-46647920D01*
X78444720Y-46648808D01*
X78471537Y-46706662D01*
X78461983Y-46775876D01*
X78445385Y-46801701D01*
X78445879Y-46802080D01*
X78299730Y-46992545D01*
X78181719Y-47196943D01*
X78181714Y-47196954D01*
X78091394Y-47415006D01*
X78030306Y-47642989D01*
X77999501Y-47876979D01*
X77999500Y-47876995D01*
X77999500Y-48113004D01*
X77999501Y-48113020D01*
X78030306Y-48347010D01*
X78091394Y-48574993D01*
X78181714Y-48793045D01*
X78181719Y-48793056D01*
X78228906Y-48874785D01*
X78299727Y-48997450D01*
X78299729Y-48997453D01*
X78299730Y-48997454D01*
X78445879Y-49187920D01*
X78444720Y-49188808D01*
X78471537Y-49246662D01*
X78461983Y-49315876D01*
X78445385Y-49341701D01*
X78445879Y-49342080D01*
X78299730Y-49532545D01*
X78181719Y-49736943D01*
X78181714Y-49736954D01*
X78091394Y-49955006D01*
X78030306Y-50182989D01*
X77999501Y-50416979D01*
X77999500Y-50416995D01*
X77999500Y-50653004D01*
X77999501Y-50653020D01*
X78030306Y-50887010D01*
X78091394Y-51114993D01*
X78181714Y-51333045D01*
X78181719Y-51333056D01*
X78252677Y-51455957D01*
X78299727Y-51537450D01*
X78299729Y-51537453D01*
X78299730Y-51537454D01*
X78445879Y-51727920D01*
X78444720Y-51728808D01*
X78471537Y-51786662D01*
X78461983Y-51855876D01*
X78445385Y-51881701D01*
X78445879Y-51882080D01*
X78299730Y-52072545D01*
X78181719Y-52276943D01*
X78181714Y-52276954D01*
X78091394Y-52495006D01*
X78030306Y-52722989D01*
X77999501Y-52956979D01*
X77999500Y-52956995D01*
X77999500Y-53193004D01*
X77999501Y-53193020D01*
X78030306Y-53427010D01*
X78091394Y-53654993D01*
X78181714Y-53873045D01*
X78181719Y-53873056D01*
X78252677Y-53995957D01*
X78299727Y-54077450D01*
X78299729Y-54077453D01*
X78299730Y-54077454D01*
X78445879Y-54267920D01*
X78444720Y-54268808D01*
X78471537Y-54326662D01*
X78461983Y-54395876D01*
X78445385Y-54421701D01*
X78445879Y-54422080D01*
X78299730Y-54612545D01*
X78181719Y-54816943D01*
X78181714Y-54816954D01*
X78091394Y-55035006D01*
X78030306Y-55262989D01*
X77999501Y-55496979D01*
X77999500Y-55496995D01*
X77999500Y-55733004D01*
X77999501Y-55733020D01*
X78030306Y-55967010D01*
X78091394Y-56194993D01*
X78181714Y-56413045D01*
X78181719Y-56413056D01*
X78252677Y-56535957D01*
X78299727Y-56617450D01*
X78299729Y-56617453D01*
X78299730Y-56617454D01*
X78445879Y-56807920D01*
X78444720Y-56808808D01*
X78471537Y-56866662D01*
X78461983Y-56935876D01*
X78445385Y-56961701D01*
X78445879Y-56962080D01*
X78299730Y-57152545D01*
X78181719Y-57356943D01*
X78181714Y-57356954D01*
X78091394Y-57575006D01*
X78030306Y-57802989D01*
X77999501Y-58036979D01*
X77999500Y-58036995D01*
X77999500Y-58273004D01*
X77999501Y-58273020D01*
X78030306Y-58507010D01*
X78091394Y-58734993D01*
X78181714Y-58953045D01*
X78181719Y-58953056D01*
X78246275Y-59064868D01*
X78299727Y-59157450D01*
X78299729Y-59157453D01*
X78299730Y-59157454D01*
X78445879Y-59347920D01*
X78444720Y-59348808D01*
X78471537Y-59406662D01*
X78461983Y-59475876D01*
X78445385Y-59501701D01*
X78445879Y-59502080D01*
X78299730Y-59692545D01*
X78181719Y-59896943D01*
X78181714Y-59896954D01*
X78091394Y-60115006D01*
X78030306Y-60342989D01*
X77999501Y-60576979D01*
X77999500Y-60576995D01*
X77999500Y-60813004D01*
X77999501Y-60813020D01*
X78030306Y-61047010D01*
X78091394Y-61274993D01*
X78181714Y-61493045D01*
X78181719Y-61493056D01*
X78242894Y-61599013D01*
X78299727Y-61697450D01*
X78299729Y-61697453D01*
X78299730Y-61697454D01*
X78445879Y-61887920D01*
X78444720Y-61888808D01*
X78471537Y-61946662D01*
X78461983Y-62015876D01*
X78445385Y-62041701D01*
X78445879Y-62042080D01*
X78299730Y-62232545D01*
X78181719Y-62436943D01*
X78181714Y-62436954D01*
X78091394Y-62655006D01*
X78030306Y-62882989D01*
X77999501Y-63116979D01*
X77999500Y-63116995D01*
X77999500Y-63353004D01*
X77999501Y-63353020D01*
X78027936Y-63569010D01*
X78030307Y-63587014D01*
X78091279Y-63814564D01*
X78091394Y-63814993D01*
X78181714Y-64033045D01*
X78181719Y-64033056D01*
X78250842Y-64152778D01*
X78299727Y-64237450D01*
X78299729Y-64237453D01*
X78299730Y-64237454D01*
X78445879Y-64427920D01*
X78444720Y-64428808D01*
X78471537Y-64486662D01*
X78461983Y-64555876D01*
X78445385Y-64581701D01*
X78445879Y-64582080D01*
X78299730Y-64772545D01*
X78181719Y-64976943D01*
X78181714Y-64976954D01*
X78091394Y-65195006D01*
X78030306Y-65422989D01*
X77999501Y-65656979D01*
X77999500Y-65656995D01*
X77999500Y-65893004D01*
X77999501Y-65893020D01*
X78030306Y-66127010D01*
X78091394Y-66354993D01*
X78181714Y-66573045D01*
X78181719Y-66573056D01*
X78252677Y-66695957D01*
X78299727Y-66777450D01*
X78299729Y-66777453D01*
X78299730Y-66777454D01*
X78445879Y-66967920D01*
X78444720Y-66968808D01*
X78471537Y-67026662D01*
X78461983Y-67095876D01*
X78445385Y-67121701D01*
X78445879Y-67122080D01*
X78299730Y-67312545D01*
X78181719Y-67516943D01*
X78181714Y-67516954D01*
X78091394Y-67735006D01*
X78030306Y-67962989D01*
X77999501Y-68196979D01*
X77999500Y-68196995D01*
X77999500Y-68433004D01*
X77999501Y-68433020D01*
X78030306Y-68667010D01*
X78091394Y-68894993D01*
X78181714Y-69113045D01*
X78181719Y-69113056D01*
X78252677Y-69235957D01*
X78299727Y-69317450D01*
X78299729Y-69317453D01*
X78299730Y-69317454D01*
X78445879Y-69507920D01*
X78444720Y-69508808D01*
X78471537Y-69566662D01*
X78461983Y-69635876D01*
X78445385Y-69661701D01*
X78445879Y-69662080D01*
X78299730Y-69852545D01*
X78181719Y-70056943D01*
X78181714Y-70056954D01*
X78091394Y-70275006D01*
X78030306Y-70502989D01*
X77999501Y-70736979D01*
X77999500Y-70736995D01*
X77999500Y-70973004D01*
X77999501Y-70973020D01*
X78030306Y-71207010D01*
X78091394Y-71434993D01*
X78181714Y-71653045D01*
X78181719Y-71653056D01*
X78252677Y-71775957D01*
X78299727Y-71857450D01*
X78299729Y-71857453D01*
X78299730Y-71857454D01*
X78445879Y-72047920D01*
X78444720Y-72048808D01*
X78471537Y-72106662D01*
X78461983Y-72175876D01*
X78445385Y-72201701D01*
X78445879Y-72202080D01*
X78299730Y-72392545D01*
X78181719Y-72596943D01*
X78181714Y-72596954D01*
X78091394Y-72815006D01*
X78030306Y-73042989D01*
X77999501Y-73276979D01*
X77999500Y-73276995D01*
X77999500Y-73513004D01*
X77999501Y-73513020D01*
X78030306Y-73747010D01*
X78091394Y-73974993D01*
X78181714Y-74193045D01*
X78181719Y-74193056D01*
X78252677Y-74315957D01*
X78299727Y-74397450D01*
X78299729Y-74397453D01*
X78299730Y-74397454D01*
X78445879Y-74587920D01*
X78444720Y-74588808D01*
X78471537Y-74646662D01*
X78461983Y-74715876D01*
X78445385Y-74741701D01*
X78445879Y-74742080D01*
X78299730Y-74932545D01*
X78181719Y-75136943D01*
X78181714Y-75136954D01*
X78091394Y-75355006D01*
X78030306Y-75582989D01*
X77999501Y-75816979D01*
X77999500Y-75816995D01*
X77999500Y-76053004D01*
X77999501Y-76053020D01*
X78030306Y-76287010D01*
X78091394Y-76514993D01*
X78181714Y-76733045D01*
X78181719Y-76733056D01*
X78239755Y-76833575D01*
X78299727Y-76937450D01*
X78299729Y-76937453D01*
X78299730Y-76937454D01*
X78443406Y-77124697D01*
X78443412Y-77124704D01*
X78610295Y-77291587D01*
X78610301Y-77291592D01*
X78797550Y-77435273D01*
X78928918Y-77511118D01*
X79001943Y-77553280D01*
X79001948Y-77553282D01*
X79001951Y-77553284D01*
X79220007Y-77643606D01*
X79447986Y-77704693D01*
X79681989Y-77735500D01*
X79681996Y-77735500D01*
X79918004Y-77735500D01*
X79918011Y-77735500D01*
X80152014Y-77704693D01*
X80379993Y-77643606D01*
X80598049Y-77553284D01*
X80802450Y-77435273D01*
X80989699Y-77291592D01*
X81156592Y-77124699D01*
X81300273Y-76937450D01*
X81418284Y-76733049D01*
X81508606Y-76514993D01*
X81569693Y-76287014D01*
X81600500Y-76053011D01*
X81600500Y-75816989D01*
X81569693Y-75582986D01*
X81508606Y-75355007D01*
X81418284Y-75136951D01*
X81418282Y-75136948D01*
X81418280Y-75136943D01*
X81376118Y-75063918D01*
X81300273Y-74932550D01*
X81241351Y-74855761D01*
X81154121Y-74742080D01*
X81155286Y-74741185D01*
X81128469Y-74683381D01*
X81137998Y-74614165D01*
X81154619Y-74588302D01*
X81154121Y-74587920D01*
X81208814Y-74516641D01*
X81300273Y-74397450D01*
X81418284Y-74193049D01*
X81508606Y-73974993D01*
X81569693Y-73747014D01*
X81600500Y-73513011D01*
X81600500Y-73276989D01*
X81569693Y-73042986D01*
X81508606Y-72815007D01*
X81418284Y-72596951D01*
X81418282Y-72596948D01*
X81418280Y-72596943D01*
X81361857Y-72499217D01*
X81300273Y-72392550D01*
X81232734Y-72304531D01*
X81154121Y-72202080D01*
X81155286Y-72201185D01*
X81128469Y-72143381D01*
X81137998Y-72074165D01*
X81154619Y-72048302D01*
X81154121Y-72047920D01*
X81269427Y-71897649D01*
X81300273Y-71857450D01*
X81418284Y-71653049D01*
X81508606Y-71434993D01*
X81569693Y-71207014D01*
X81600500Y-70973011D01*
X81600500Y-70736989D01*
X81569693Y-70502986D01*
X81508606Y-70275007D01*
X81418284Y-70056951D01*
X81418282Y-70056948D01*
X81418280Y-70056943D01*
X81376118Y-69983918D01*
X81300273Y-69852550D01*
X81267105Y-69809325D01*
X81154121Y-69662080D01*
X81155286Y-69661185D01*
X81128469Y-69603381D01*
X81137998Y-69534165D01*
X81154619Y-69508302D01*
X81154121Y-69507920D01*
X81208814Y-69436641D01*
X81300273Y-69317450D01*
X81418284Y-69113049D01*
X81508606Y-68894993D01*
X81569693Y-68667014D01*
X81600500Y-68433011D01*
X81600500Y-68196989D01*
X81569693Y-67962986D01*
X81508606Y-67735007D01*
X81418284Y-67516951D01*
X81418282Y-67516948D01*
X81418280Y-67516943D01*
X81376118Y-67443918D01*
X81300273Y-67312550D01*
X81267105Y-67269325D01*
X81154121Y-67122080D01*
X81155286Y-67121185D01*
X81128469Y-67063381D01*
X81137998Y-66994165D01*
X81154619Y-66968302D01*
X81154121Y-66967920D01*
X81208814Y-66896641D01*
X81300273Y-66777450D01*
X81418284Y-66573049D01*
X81508606Y-66354993D01*
X81569693Y-66127014D01*
X81600500Y-65893011D01*
X81600500Y-65656989D01*
X81569693Y-65422986D01*
X81508606Y-65195007D01*
X81418284Y-64976951D01*
X81418282Y-64976948D01*
X81418280Y-64976943D01*
X81367901Y-64889685D01*
X81300273Y-64772550D01*
X81267105Y-64729325D01*
X81154121Y-64582080D01*
X81155286Y-64581185D01*
X81128469Y-64523381D01*
X81137998Y-64454165D01*
X81154619Y-64428302D01*
X81154121Y-64427920D01*
X81238168Y-64318387D01*
X81300273Y-64237450D01*
X81418284Y-64033049D01*
X81508606Y-63814993D01*
X81569693Y-63587014D01*
X81600500Y-63353011D01*
X81600500Y-63116989D01*
X81569693Y-62882986D01*
X81508606Y-62655007D01*
X81418284Y-62436951D01*
X81418282Y-62436948D01*
X81418280Y-62436943D01*
X81376118Y-62363918D01*
X81300273Y-62232550D01*
X81201073Y-62103270D01*
X81154121Y-62042080D01*
X81155286Y-62041185D01*
X81128469Y-61983381D01*
X81137998Y-61914165D01*
X81154619Y-61888302D01*
X81154121Y-61887920D01*
X81208814Y-61816641D01*
X81300273Y-61697450D01*
X81418284Y-61493049D01*
X81508606Y-61274993D01*
X81569693Y-61047014D01*
X81600500Y-60813011D01*
X81600500Y-60576989D01*
X81569693Y-60342986D01*
X81508606Y-60115007D01*
X81418284Y-59896951D01*
X81418282Y-59896948D01*
X81418280Y-59896943D01*
X81366011Y-59806412D01*
X81300273Y-59692550D01*
X81198071Y-59559357D01*
X81154121Y-59502080D01*
X81155286Y-59501185D01*
X81128469Y-59443381D01*
X81137998Y-59374165D01*
X81154619Y-59348302D01*
X81154121Y-59347920D01*
X81246874Y-59227041D01*
X81300273Y-59157450D01*
X81418284Y-58953049D01*
X81508606Y-58734993D01*
X81569693Y-58507014D01*
X81600500Y-58273011D01*
X81600500Y-58036989D01*
X81569693Y-57802986D01*
X81508606Y-57575007D01*
X81418284Y-57356951D01*
X81418282Y-57356948D01*
X81418280Y-57356943D01*
X81376118Y-57283918D01*
X81300273Y-57152550D01*
X81226264Y-57056099D01*
X81154121Y-56962080D01*
X81155286Y-56961185D01*
X81128469Y-56903381D01*
X81137998Y-56834165D01*
X81154619Y-56808302D01*
X81154121Y-56807920D01*
X81208814Y-56736641D01*
X81300273Y-56617450D01*
X81418284Y-56413049D01*
X81508606Y-56194993D01*
X81569693Y-55967014D01*
X81600500Y-55733011D01*
X81600500Y-55496989D01*
X81569693Y-55262986D01*
X81508606Y-55035007D01*
X81418284Y-54816951D01*
X81418282Y-54816948D01*
X81418280Y-54816943D01*
X81376118Y-54743918D01*
X81300273Y-54612550D01*
X81267105Y-54569325D01*
X81154121Y-54422080D01*
X81155286Y-54421185D01*
X81128469Y-54363381D01*
X81137998Y-54294165D01*
X81154619Y-54268302D01*
X81154121Y-54267920D01*
X81263049Y-54125961D01*
X81300273Y-54077450D01*
X81418284Y-53873049D01*
X81508606Y-53654993D01*
X81569693Y-53427014D01*
X81600500Y-53193011D01*
X81600500Y-52956989D01*
X81569693Y-52722986D01*
X81508606Y-52495007D01*
X81418284Y-52276951D01*
X81418282Y-52276948D01*
X81418280Y-52276943D01*
X81376118Y-52203918D01*
X81300273Y-52072550D01*
X81267105Y-52029325D01*
X81154121Y-51882080D01*
X81155286Y-51881185D01*
X81128469Y-51823381D01*
X81137998Y-51754165D01*
X81154619Y-51728302D01*
X81154121Y-51727920D01*
X81208814Y-51656641D01*
X81300273Y-51537450D01*
X81418284Y-51333049D01*
X81508606Y-51114993D01*
X81569693Y-50887014D01*
X81600500Y-50653011D01*
X81600500Y-50416989D01*
X81569693Y-50182986D01*
X81508606Y-49955007D01*
X81418284Y-49736951D01*
X81418282Y-49736948D01*
X81418280Y-49736943D01*
X81352857Y-49623629D01*
X81300273Y-49532550D01*
X81233058Y-49444954D01*
X81154121Y-49342080D01*
X81155286Y-49341185D01*
X81128469Y-49283381D01*
X81137998Y-49214165D01*
X81154619Y-49188302D01*
X81154121Y-49187920D01*
X81210550Y-49114379D01*
X81300273Y-48997450D01*
X81418284Y-48793049D01*
X81508606Y-48574993D01*
X81569693Y-48347014D01*
X81600500Y-48113011D01*
X81600500Y-47876989D01*
X81569693Y-47642986D01*
X81508606Y-47415007D01*
X81418284Y-47196951D01*
X81418282Y-47196948D01*
X81418280Y-47196943D01*
X81361003Y-47097737D01*
X81300273Y-46992550D01*
X81259114Y-46938910D01*
X81154121Y-46802080D01*
X81155286Y-46801185D01*
X81128469Y-46743381D01*
X81137998Y-46674165D01*
X81154619Y-46648302D01*
X81154121Y-46647920D01*
X81256113Y-46515000D01*
X81300273Y-46457450D01*
X81418284Y-46253049D01*
X81508606Y-46034993D01*
X81569693Y-45807014D01*
X81600500Y-45573011D01*
X81600500Y-45336989D01*
X81569693Y-45102986D01*
X81508606Y-44875007D01*
X81418284Y-44656951D01*
X81418282Y-44656948D01*
X81418280Y-44656943D01*
X81366874Y-44567906D01*
X81300273Y-44452550D01*
X81156592Y-44265301D01*
X81156587Y-44265295D01*
X80989704Y-44098412D01*
X80989697Y-44098406D01*
X80802457Y-43954732D01*
X80802455Y-43954730D01*
X80802450Y-43954727D01*
X80753946Y-43926723D01*
X80705733Y-43876157D01*
X80692511Y-43807550D01*
X80718479Y-43742686D01*
X80775393Y-43702158D01*
X80783840Y-43699567D01*
X80833887Y-43686158D01*
X81045888Y-43598344D01*
X81244612Y-43483611D01*
X81426661Y-43343919D01*
X81426665Y-43343914D01*
X81426670Y-43343911D01*
X81588911Y-43181670D01*
X81588914Y-43181665D01*
X81588919Y-43181661D01*
X81728611Y-42999612D01*
X81843344Y-42800888D01*
X81931158Y-42588887D01*
X81990548Y-42367238D01*
X82020500Y-42139734D01*
X82020500Y-41910266D01*
X81990548Y-41682762D01*
X81931158Y-41461113D01*
X81876268Y-41328597D01*
X81843349Y-41249123D01*
X81843346Y-41249117D01*
X81843344Y-41249112D01*
X81728611Y-41050388D01*
X81728608Y-41050385D01*
X81728607Y-41050382D01*
X81588918Y-40868338D01*
X81588911Y-40868330D01*
X81426670Y-40706089D01*
X81426661Y-40706081D01*
X81244617Y-40566392D01*
X81045890Y-40451657D01*
X81045876Y-40451650D01*
X80833887Y-40363842D01*
X80612238Y-40304452D01*
X80574215Y-40299446D01*
X80384741Y-40274500D01*
X80384734Y-40274500D01*
X80155266Y-40274500D01*
X80155258Y-40274500D01*
X79938715Y-40303009D01*
X79927762Y-40304452D01*
X79834076Y-40329554D01*
X79706112Y-40363842D01*
X79494123Y-40451650D01*
X79494109Y-40451657D01*
X79295382Y-40566392D01*
X79113338Y-40706081D01*
X78951081Y-40868338D01*
X78811392Y-41050382D01*
X78696657Y-41249109D01*
X78696650Y-41249123D01*
X78608842Y-41461112D01*
X78549453Y-41682759D01*
X78549451Y-41682770D01*
X78519500Y-41910258D01*
X78519500Y-42139741D01*
X78544446Y-42329215D01*
X78549452Y-42367238D01*
X78554378Y-42385621D01*
X78608842Y-42588887D01*
X78696650Y-42800876D01*
X78696657Y-42800890D01*
X78811392Y-42999617D01*
X78951081Y-43181661D01*
X78951089Y-43181670D01*
X79113330Y-43343911D01*
X79113338Y-43343918D01*
X79295382Y-43483607D01*
X79295385Y-43483608D01*
X79295388Y-43483611D01*
X79323115Y-43499619D01*
X79371330Y-43550185D01*
X79384553Y-43618792D01*
X79358585Y-43683657D01*
X79301670Y-43724185D01*
X79293213Y-43726778D01*
X79260485Y-43735547D01*
X79220006Y-43746394D01*
X79001954Y-43836714D01*
X79001943Y-43836719D01*
X78797545Y-43954730D01*
X78610302Y-44098406D01*
X78610295Y-44098412D01*
X78443412Y-44265295D01*
X78443406Y-44265302D01*
X78299730Y-44452545D01*
X78181719Y-44656943D01*
X78181714Y-44656954D01*
X78091394Y-44875006D01*
X78030306Y-45102989D01*
X77999501Y-45336979D01*
X77999500Y-45336995D01*
X39500500Y-45336995D01*
X39500500Y-33878711D01*
X41149500Y-33878711D01*
X41149500Y-34121288D01*
X41181161Y-34361785D01*
X41243947Y-34596104D01*
X41296400Y-34722736D01*
X41336776Y-34820212D01*
X41458064Y-35030289D01*
X41458066Y-35030292D01*
X41458067Y-35030293D01*
X41605733Y-35222736D01*
X41605739Y-35222743D01*
X41777256Y-35394260D01*
X41777262Y-35394265D01*
X41969711Y-35541936D01*
X42179788Y-35663224D01*
X42403900Y-35756054D01*
X42638211Y-35818838D01*
X42781561Y-35837710D01*
X42878711Y-35850500D01*
X42878712Y-35850500D01*
X43121289Y-35850500D01*
X43169388Y-35844167D01*
X43361789Y-35818838D01*
X43596100Y-35756054D01*
X43820212Y-35663224D01*
X44030289Y-35541936D01*
X44222738Y-35394265D01*
X44394265Y-35222738D01*
X44541936Y-35030289D01*
X44663224Y-34820212D01*
X44756054Y-34596100D01*
X44818838Y-34361789D01*
X44850500Y-34121288D01*
X44850500Y-33878712D01*
X44847824Y-33858389D01*
X44826022Y-33692781D01*
X44818838Y-33638211D01*
X44756054Y-33403900D01*
X44663224Y-33179788D01*
X44541936Y-32969711D01*
X44394265Y-32777262D01*
X44394260Y-32777256D01*
X44222743Y-32605739D01*
X44222736Y-32605733D01*
X44030293Y-32458067D01*
X44030292Y-32458066D01*
X44030289Y-32458064D01*
X43820212Y-32336776D01*
X43820205Y-32336773D01*
X43596104Y-32243947D01*
X43361785Y-32181161D01*
X43121289Y-32149500D01*
X43121288Y-32149500D01*
X42878712Y-32149500D01*
X42878711Y-32149500D01*
X42638214Y-32181161D01*
X42403895Y-32243947D01*
X42179794Y-32336773D01*
X42179785Y-32336777D01*
X41969706Y-32458067D01*
X41777263Y-32605733D01*
X41777256Y-32605739D01*
X41605739Y-32777256D01*
X41605733Y-32777263D01*
X41458067Y-32969706D01*
X41336777Y-33179785D01*
X41336773Y-33179794D01*
X41243947Y-33403895D01*
X41181161Y-33638214D01*
X41149500Y-33878711D01*
X39500500Y-33878711D01*
X39500500Y-30624500D01*
X39520185Y-30557461D01*
X39572989Y-30511706D01*
X39624500Y-30500500D01*
X82376000Y-30500500D01*
X82443039Y-30520185D01*
G37*
%TD.AperFunction*%
%TD*%
M02*
