%TF.GenerationSoftware,KiCad,Pcbnew,9.0.2*%
%TF.CreationDate,2025-07-17T14:14:17-05:00*%
%TF.ProjectId,PCB Leds,50434220-4c65-4647-932e-6b696361645f,rev?*%
%TF.SameCoordinates,Original*%
%TF.FileFunction,Soldermask,Top*%
%TF.FilePolarity,Negative*%
%FSLAX46Y46*%
G04 Gerber Fmt 4.6, Leading zero omitted, Abs format (unit mm)*
G04 Created by KiCad (PCBNEW 9.0.2) date 2025-07-17 14:14:17*
%MOMM*%
%LPD*%
G01*
G04 APERTURE LIST*
G04 Aperture macros list*
%AMRoundRect*
0 Rectangle with rounded corners*
0 $1 Rounding radius*
0 $2 $3 $4 $5 $6 $7 $8 $9 X,Y pos of 4 corners*
0 Add a 4 corners polygon primitive as box body*
4,1,4,$2,$3,$4,$5,$6,$7,$8,$9,$2,$3,0*
0 Add four circle primitives for the rounded corners*
1,1,$1+$1,$2,$3*
1,1,$1+$1,$4,$5*
1,1,$1+$1,$6,$7*
1,1,$1+$1,$8,$9*
0 Add four rect primitives between the rounded corners*
20,1,$1+$1,$2,$3,$4,$5,0*
20,1,$1+$1,$4,$5,$6,$7,0*
20,1,$1+$1,$6,$7,$8,$9,0*
20,1,$1+$1,$8,$9,$2,$3,0*%
G04 Aperture macros list end*
%ADD10C,1.600000*%
%ADD11R,3.500000X3.500000*%
%ADD12RoundRect,0.750000X-0.750000X-1.000000X0.750000X-1.000000X0.750000X1.000000X-0.750000X1.000000X0*%
%ADD13RoundRect,0.875000X-0.875000X-0.875000X0.875000X-0.875000X0.875000X0.875000X-0.875000X0.875000X0*%
%ADD14R,1.800000X1.800000*%
%ADD15C,1.800000*%
%ADD16C,3.200000*%
%ADD17R,3.000000X3.000000*%
%ADD18C,3.000000*%
%ADD19RoundRect,0.102000X1.000000X1.000000X-1.000000X1.000000X-1.000000X-1.000000X1.000000X-1.000000X0*%
%ADD20C,2.204000*%
%ADD21RoundRect,0.250001X1.149999X-1.149999X1.149999X1.149999X-1.149999X1.149999X-1.149999X-1.149999X0*%
%ADD22C,2.800000*%
%ADD23C,1.524000*%
%ADD24C,1.982000*%
G04 APERTURE END LIST*
D10*
%TO.C,R2*%
X121340000Y-43000000D03*
X131500000Y-43000000D03*
%TD*%
%TO.C,R3*%
X121340000Y-48500000D03*
X131500000Y-48500000D03*
%TD*%
D11*
%TO.C,J1*%
X54500000Y-63500000D03*
D12*
X48500000Y-63500000D03*
D13*
X51500000Y-68200000D03*
%TD*%
D14*
%TO.C,D4*%
X115630000Y-54000000D03*
D15*
X118170000Y-54000000D03*
%TD*%
D16*
%TO.C,REF\u002A\u002A*%
X43000000Y-34000000D03*
%TD*%
D14*
%TO.C,D2*%
X115460000Y-43000000D03*
D15*
X118000000Y-43000000D03*
%TD*%
D10*
%TO.C,R4*%
X121340000Y-54000000D03*
X131500000Y-54000000D03*
%TD*%
D16*
%TO.C,BT1*%
X62495000Y-114000000D03*
X118105000Y-114000000D03*
D17*
X54050000Y-114000000D03*
D18*
X126950000Y-114000000D03*
%TD*%
D16*
%TO.C,*%
X135500000Y-126000000D03*
%TD*%
%TO.C,*%
X108500000Y-33500000D03*
%TD*%
D14*
%TO.C,D1*%
X115460000Y-37500000D03*
D15*
X118000000Y-37500000D03*
%TD*%
D14*
%TO.C,D3*%
X115630000Y-48500000D03*
D15*
X118170000Y-48500000D03*
%TD*%
D18*
%TO.C,U1*%
X104780000Y-88975000D03*
X104780000Y-42025000D03*
X80270000Y-88975000D03*
X80270000Y-42025000D03*
D19*
X105200000Y-81015000D03*
D20*
X105200000Y-78475000D03*
X105200000Y-75935000D03*
X105200000Y-73395000D03*
X105200000Y-70855000D03*
X105200000Y-68315000D03*
X105200000Y-65775000D03*
X105200000Y-63235000D03*
X105200000Y-60695000D03*
X105200000Y-58155000D03*
X105200000Y-55615000D03*
X105200000Y-53075000D03*
X105200000Y-50535000D03*
X105200000Y-47995000D03*
X105200000Y-45455000D03*
X79800000Y-45455000D03*
X79800000Y-47995000D03*
X79800000Y-50535000D03*
X79800000Y-53075000D03*
X79800000Y-55615000D03*
X79800000Y-58155000D03*
X79800000Y-60695000D03*
X79800000Y-63235000D03*
X79800000Y-65775000D03*
X79800000Y-68315000D03*
X79800000Y-70855000D03*
X79800000Y-73395000D03*
X79800000Y-75935000D03*
X79800000Y-78475000D03*
X79800000Y-81015000D03*
%TD*%
D21*
%TO.C,J2*%
X130500000Y-80000000D03*
D22*
X130500000Y-75000000D03*
X130500000Y-70000000D03*
%TD*%
D16*
%TO.C,*%
X43000000Y-126000000D03*
%TD*%
D23*
%TO.C,U2*%
X41650000Y-97430000D03*
X44190000Y-97430000D03*
X46730000Y-97430000D03*
X49270000Y-97430000D03*
X51810000Y-97430000D03*
X54350000Y-97430000D03*
%TD*%
D10*
%TO.C,R1*%
X121340000Y-37500000D03*
X131500000Y-37500000D03*
%TD*%
D24*
%TO.C,Q1*%
X121500000Y-60500000D03*
X123296050Y-62296050D03*
X125092100Y-60500000D03*
%TD*%
M02*
